<svg xmlns="http://www.w3.org/2000/svg" viewBox="0 0 350 200"><defs><style>.a{fill:#ac485e;}.b{fill:#326178;}.c{fill:#316077;}</style></defs><title>Artboard 1</title><path class="a" d="M46.69,187.17s8.94-22.4-4.38-41.74-4.06-32.49-4.38-33c0,0-7.84.46-13.84,9,0,0-2.91-12.68,20.9-32.37C57.27,77.92,55.91,59.64,55.91,59.64s-.46-31.13-20.76-46.81c0,0,5.94,9.83-4.15,25.83,0,0-21.22,27.44-19.83,56,0,0,2.77-18.94,17.53-32.05,0,0,8.94-7.21,13.84-16.6,0,0,.38,14.59-13.15,27.9a51.1,51.1,0,0,0-15.22,36.67,61,61,0,0,0,12.68,35.05c13,16.76,20.73,22.46,19.83,41.51"/><path class="b" d="M105.32,60.94h4.61l36.52,87.95q2.2,5.33,9,5.33h3.17v4.88H118v-4.88h3.24q6.33,0,9-1.3a3,3,0,0,0,1.79-2.79,6.46,6.46,0,0,0-.48-2.34l-8.43-20.41H82.8l-4.73,11.7a21.62,21.62,0,0,0-1.86,7.41,6.62,6.62,0,0,0,3.13,5.46q3.13,2.28,9.12,2.28h3.44v4.88H55v-4.88q5.92,0,9.36-2.44t6.33-9.26Zm-2,18.53L85,122.3h36Z"/><path class="b" d="M136.92,39.18h65.62q14.6,0,24.82,4.86,12.71,6.16,21.6,20.51t8.89,34a76.25,76.25,0,0,1-5.32,29.19,46.5,46.5,0,0,1-12.41,17.43,54.42,54.42,0,0,1-20.4,11.19q-9,2.76-24,2.76H136.92V153h12q4.55,0,6.31-1.38a5.12,5.12,0,0,0,1.76-4.3V50.78a4.87,4.87,0,0,0-1.89-4,8.22,8.22,0,0,0-5.24-1.5h-13Zm46,6.08q-3.87,0-5.71,1.54a5.67,5.67,0,0,0-1.85,4.62V147.1a5,5,0,0,0,2.15,4.42q2.15,1.5,7.3,1.5h10.82q14.51,0,25.42-7.05a29.38,29.38,0,0,0,10.82-13.22Q237,121.23,237,101,237,71,225.9,57q-9.45-11.75-28.51-11.76Z"/><path class="b" d="M283.11,60.94h4.61l36.52,87.95q2.2,5.33,9,5.33h3.17v4.88H295.8v-4.88H299q6.33,0,9-1.3a3,3,0,0,0,1.79-2.79,6.45,6.45,0,0,0-.48-2.34l-8.42-20.41H260.59l-4.73,11.7a21.62,21.62,0,0,0-1.86,7.41,6.62,6.62,0,0,0,3.13,5.46q3.13,2.28,9.12,2.28h3.44v4.88H232.79v-4.88q5.92,0,9.36-2.44t6.33-9.26Zm-2,18.53L262.81,122.3h36Z"/><path class="c" d="M68.55,181.31a9.29,9.29,0,0,1-.24,2.26,5.21,5.21,0,0,1-.68,1.6,4,4,0,0,1-1,1.06,5,5,0,0,1-1.51.69,7.66,7.66,0,0,1-2.09.25,8.51,8.51,0,0,1-2.49-.32,3.8,3.8,0,0,1-1.72-1.07,4.37,4.37,0,0,1-1-1.74,9.06,9.06,0,0,1-.3-2.55v-7.9a8.37,8.37,0,0,0-.06-1.27,1.67,1.67,0,0,0-.17-.52,1.07,1.07,0,0,0-.33-.33,3.24,3.24,0,0,0-.8-.29v-.59h5v.59a2.59,2.59,0,0,0-.93.38,1.06,1.06,0,0,0-.36.63,6.91,6.91,0,0,0-.1,1.4v8.5a6.67,6.67,0,0,0,.25,2,2.9,2.9,0,0,0,.69,1.23,2.59,2.59,0,0,0,1.06.64,5,5,0,0,0,1.52.2,3.47,3.47,0,0,0,1.47-.29,2.62,2.62,0,0,0,1.06-.89,3.56,3.56,0,0,0,.58-1.47,13.73,13.73,0,0,0,.16-2.36v-7.5a6.65,6.65,0,0,0-.1-1.43,1.15,1.15,0,0,0-.34-.59,2.67,2.67,0,0,0-1-.39v-.59H70v.59a2.56,2.56,0,0,0-1,.39,1.13,1.13,0,0,0-.36.63,7.09,7.09,0,0,0-.09,1.39Z"/><path class="c" d="M82.07,180.49c.29.48.53.9.73,1.26s.4.76.61,1.21h.16c0-.49-.07-1.46-.11-2.91s0-2.76,0-3.93v-2.52a12.09,12.09,0,0,0,0-1.21,1.46,1.46,0,0,0-.18-.59,1,1,0,0,0-.35-.33,3.9,3.9,0,0,0-.77-.28v-.59h4.32v.59a3.62,3.62,0,0,0-.76.26,1.07,1.07,0,0,0-.36.31,1.38,1.38,0,0,0-.21.58,7.48,7.48,0,0,0-.07,1.26v13.46h-1.5l-6.69-11.21q-.63-1-.89-1.52t-.49-.95h-.2q.09.92.12,3.34t0,4.82V184a8.86,8.86,0,0,0,.06,1.18,1.55,1.55,0,0,0,.18.59,1,1,0,0,0,.37.36,3.21,3.21,0,0,0,.8.29V187H72.38v-.59a2.4,2.4,0,0,0,1-.43,1.16,1.16,0,0,0,.33-.66,8.44,8.44,0,0,0,.08-1.32V173.59a8.33,8.33,0,0,0-.06-1.2,1.57,1.57,0,0,0-.2-.59,1.08,1.08,0,0,0-.37-.34,4.08,4.08,0,0,0-.78-.28v-.59h3.76Z"/><path class="c" d="M92.82,184a9,9,0,0,0,.05,1.18,1.71,1.71,0,0,0,.18.59,1,1,0,0,0,.37.36,3.21,3.21,0,0,0,.8.29V187H89.16v-.59a2.39,2.39,0,0,0,1-.43,1.14,1.14,0,0,0,.33-.66,8,8,0,0,0,.08-1.32V173.59a9.2,9.2,0,0,0-.06-1.2,1.51,1.51,0,0,0-.2-.59,1,1,0,0,0-.36-.34,4.15,4.15,0,0,0-.78-.28v-.59h5.07v.59a3.29,3.29,0,0,0-.76.26,1,1,0,0,0-.37.33,1.44,1.44,0,0,0-.21.59,8,8,0,0,0-.07,1.22Z"/><path class="c" d="M101.37,170.6v.59a3.11,3.11,0,0,0-.84.24,1,1,0,0,0-.43.41,1.5,1.5,0,0,0-.14.71,4.67,4.67,0,0,0,.09.88c.07.32.16.67.28,1.06l2.81,9.8,3.45-9.87c0-.16.1-.32.14-.48s.09-.33.13-.49a3.5,3.5,0,0,0,.07-.42,3.28,3.28,0,0,0,0-.34,1.46,1.46,0,0,0-.33-1.05,2,2,0,0,0-1.12-.45v-.59h5v.59a2.1,2.1,0,0,0-.79.34,2.54,2.54,0,0,0-.59.73,11.87,11.87,0,0,0-.72,1.61l-5,13.3h-1.57l-4-13.38a9.43,9.43,0,0,0-.56-1.55,2.17,2.17,0,0,0-.53-.7,1.94,1.94,0,0,0-.79-.35v-.59Z"/><path class="c" d="M123.19,170.6v3.63H122a10.75,10.75,0,0,0-.37-1,4.41,4.41,0,0,0-.4-.75,1.88,1.88,0,0,0-.45-.48,1.46,1.46,0,0,0-.58-.25,4.12,4.12,0,0,0-.8-.07h-3.79v6.29h2.57a1.85,1.85,0,0,0,.83-.15,1.18,1.18,0,0,0,.5-.51,4.79,4.79,0,0,0,.38-1.13H121v4.61h-1.13a4.38,4.38,0,0,0-.37-1.09,1.28,1.28,0,0,0-.48-.52,1.77,1.77,0,0,0-.85-.16h-2.57v6.92h3.73a3.57,3.57,0,0,0,1-.1,1.47,1.47,0,0,0,.63-.35,2.3,2.3,0,0,0,.47-.64,6,6,0,0,0,.34-.82c.09-.28.22-.7.38-1.24h1.19l-.23,4.21H112v-.59a2.39,2.39,0,0,0,1-.43,1.14,1.14,0,0,0,.33-.66,8,8,0,0,0,.08-1.32V173.59a9.18,9.18,0,0,0-.06-1.2,1.51,1.51,0,0,0-.2-.59,1,1,0,0,0-.36-.34,4.14,4.14,0,0,0-.78-.28v-.59Z"/><path class="c" d="M129.76,171.7v7.13h1.36a7.56,7.56,0,0,0,1.69-.15,3.12,3.12,0,0,0,1.2-.57,2.9,2.9,0,0,0,.89-1.17,4.62,4.62,0,0,0,.33-1.84,4.13,4.13,0,0,0-.39-1.9,2.63,2.63,0,0,0-1.18-1.16,4.84,4.84,0,0,0-2.13-.39c-.72,0-1.31,0-1.75,0m0,8.16v4.08a8.31,8.31,0,0,0,.07,1.25,1.52,1.52,0,0,0,.2.59,1,1,0,0,0,.36.33,4.17,4.17,0,0,0,.78.28V187H126.1v-.59a2.39,2.39,0,0,0,1-.43,1.14,1.14,0,0,0,.33-.66,8,8,0,0,0,.08-1.32V173.59a9.2,9.2,0,0,0-.06-1.2,1.51,1.51,0,0,0-.2-.59,1,1,0,0,0-.36-.34,4.15,4.15,0,0,0-.78-.28v-.59H132a7.09,7.09,0,0,1,4.2,1,3.66,3.66,0,0,1,1.39,3.17,4.39,4.39,0,0,1-.91,2.8,5.88,5.88,0,0,1-2.72,1.8v.09a3.58,3.58,0,0,1,1.25.86,8.5,8.5,0,0,1,1.16,1.74l1.08,2a11.8,11.8,0,0,0,.8,1.32,3,3,0,0,0,.68.69,2.26,2.26,0,0,0,.93.34V187h-3.33a14.42,14.42,0,0,1-.86-1.37c-.27-.49-.54-1-.8-1.49l-1.06-2a13,13,0,0,0-.79-1.34,2.5,2.5,0,0,0-.57-.61,1.63,1.63,0,0,0-.55-.24,4.3,4.3,0,0,0-.88-.07Z"/><path class="c" d="M142.1,183.25a5.07,5.07,0,0,0,.65,1.67,2.51,2.51,0,0,0,1.06.91,4.06,4.06,0,0,0,1.67.29,3,3,0,0,0,2.15-.73,2.85,2.85,0,0,0,.75-2.13,3.28,3.28,0,0,0-.31-1.51,3.48,3.48,0,0,0-1-1.16,14.21,14.21,0,0,0-2.16-1.26,11.71,11.71,0,0,1-2.22-1.36,4.63,4.63,0,0,1-1.22-1.45,3.68,3.68,0,0,1-.4-1.7,4.28,4.28,0,0,1,.63-2.34,4.09,4.09,0,0,1,1.85-1.53,6.83,6.83,0,0,1,2.79-.54,15.84,15.84,0,0,1,1.78.1,15.61,15.61,0,0,1,2.18.43v3.24h-1.19a5,5,0,0,0-.7-1.64,2.28,2.28,0,0,0-1-.82,3.88,3.88,0,0,0-1.46-.23,3.28,3.28,0,0,0-1.4.29,2.23,2.23,0,0,0-1,.87,2.55,2.55,0,0,0-.36,1.38,3.11,3.11,0,0,0,.3,1.44,3.41,3.41,0,0,0,1,1.09,11.44,11.44,0,0,0,1.92,1.13,14.77,14.77,0,0,1,2.38,1.43,5.08,5.08,0,0,1,1.32,1.51,4,4,0,0,1,.48,2,5.16,5.16,0,0,1-.4,2.13,3.72,3.72,0,0,1-1.1,1.41,4.47,4.47,0,0,1-1.68.79,8.81,8.81,0,0,1-2.14.25,17.74,17.74,0,0,1-4.35-.64v-3.29Z"/><path class="c" d="M156.87,184a9,9,0,0,0,.05,1.18,1.71,1.71,0,0,0,.18.59,1,1,0,0,0,.37.36,3.21,3.21,0,0,0,.8.29V187h-5.07v-.59a2.39,2.39,0,0,0,1-.43,1.14,1.14,0,0,0,.33-.66,8,8,0,0,0,.08-1.32V173.59a9.2,9.2,0,0,0-.06-1.2,1.51,1.51,0,0,0-.2-.59,1,1,0,0,0-.36-.34,4.15,4.15,0,0,0-.78-.28v-.59h5.07v.59a3.29,3.29,0,0,0-.76.26,1,1,0,0,0-.37.33,1.44,1.44,0,0,0-.2.59,8,8,0,0,0-.07,1.22Z"/><path class="c" d="M160.52,170.6h13v4.18h-1.18a11.68,11.68,0,0,0-.52-1.63,3.23,3.23,0,0,0-.55-.91,1.71,1.71,0,0,0-.61-.44,2.89,2.89,0,0,0-1-.13h-1.52v12.29a6.31,6.31,0,0,0,.08,1.13,1.86,1.86,0,0,0,.24.67,1.14,1.14,0,0,0,.44.39,4.16,4.16,0,0,0,.86.27V187h-5.49v-.59a5.37,5.37,0,0,0,.64-.18,1.46,1.46,0,0,0,.45-.23,1.12,1.12,0,0,0,.29-.35,2.14,2.14,0,0,0,.18-.59,6.57,6.57,0,0,0,.07-1.09V171.65h-1.51a3.44,3.44,0,0,0-.93.11,1.5,1.5,0,0,0-.68.45,3.32,3.32,0,0,0-.57,1,11.42,11.42,0,0,0-.49,1.59h-1.19Z"/><path class="c" d="M180.08,180.1l-3.31-6.16c-.4-.74-.7-1.27-.91-1.59a3.85,3.85,0,0,0-.62-.76,2,2,0,0,0-.72-.41v-.59h5.11v.59q-1.13.13-1.13,1a2.29,2.29,0,0,0,.16.78,11.23,11.23,0,0,0,.58,1.23l2.4,4.57,2.36-4.17a10.44,10.44,0,0,0,.68-1.4,3,3,0,0,0,.2-1,.89.89,0,0,0-.26-.68,1.22,1.22,0,0,0-.76-.29v-.59h4.55v.59a2.77,2.77,0,0,0-.86.5,4.77,4.77,0,0,0-.75.86c-.26.36-.63,1-1.13,1.82l-3.33,5.69v3.89a6.62,6.62,0,0,0,.07,1.1,1.7,1.7,0,0,0,.24.67,1.16,1.16,0,0,0,.45.4,3.72,3.72,0,0,0,.86.27V187h-5.48v-.59a3.56,3.56,0,0,0,.85-.26,1.08,1.08,0,0,0,.44-.39,1.91,1.91,0,0,0,.25-.68,6.23,6.23,0,0,0,.08-1.11Z"/><path class="c" d="M206.13,170.6v3.63H205a10.43,10.43,0,0,0-.51-1.32,2.75,2.75,0,0,0-.52-.77,1.52,1.52,0,0,0-.63-.37,3.51,3.51,0,0,0-.95-.11h-3.52v6.53h2.47a1.67,1.67,0,0,0,.83-.18,1.29,1.29,0,0,0,.5-.58,5.75,5.75,0,0,0,.38-1.26h1.13v5.07H203a6,6,0,0,0-.38-1.23,1.37,1.37,0,0,0-.49-.59,1.62,1.62,0,0,0-.83-.18h-2.47v4.71a6.14,6.14,0,0,0,.09,1.15,1.61,1.61,0,0,0,.27.68,1.13,1.13,0,0,0,.52.38,5.25,5.25,0,0,0,.8.23V187h-5.33v-.59a2.39,2.39,0,0,0,1-.43,1.14,1.14,0,0,0,.33-.66,8,8,0,0,0,.08-1.32V173.59a9.2,9.2,0,0,0-.06-1.2,1.51,1.51,0,0,0-.2-.59,1,1,0,0,0-.36-.34,4.15,4.15,0,0,0-.78-.28v-.59Z"/><path class="c" d="M210.64,178.59a11.74,11.74,0,0,0,1.07,5.6,3.41,3.41,0,0,0,3.14,1.92,3.16,3.16,0,0,0,2.22-.84,5.07,5.07,0,0,0,1.37-2.44,13.68,13.68,0,0,0,.46-3.76,14.86,14.86,0,0,0-.54-4.34,5.21,5.21,0,0,0-1.46-2.5,3.22,3.22,0,0,0-2.15-.78,3.33,3.33,0,0,0-1.86.5,3.91,3.91,0,0,0-1.28,1.43,7.28,7.28,0,0,0-.75,2.25,16.94,16.94,0,0,0-.23,2.94m3.95,8.58a7,7,0,0,1-2.62-.48,5.07,5.07,0,0,1-2-1.48,7,7,0,0,1-1.31-2.56,13.27,13.27,0,0,1-.46-3.73,11.71,11.71,0,0,1,.82-4.6,6.38,6.38,0,0,1,2.34-2.92,6.24,6.24,0,0,1,3.52-1,6.5,6.5,0,0,1,3.59.94,5.74,5.74,0,0,1,2.2,2.77,13.82,13.82,0,0,1-.1,9.2,6.18,6.18,0,0,1-2.37,2.89A6.56,6.56,0,0,1,214.59,187.17Z"/><path class="c" d="M236.31,181.31a9.29,9.29,0,0,1-.24,2.26,5.21,5.21,0,0,1-.68,1.6,4,4,0,0,1-1,1.06,5,5,0,0,1-1.51.69,7.66,7.66,0,0,1-2.09.25,8.51,8.51,0,0,1-2.49-.32,3.8,3.8,0,0,1-1.72-1.07,4.37,4.37,0,0,1-1-1.74,9.06,9.06,0,0,1-.3-2.55v-7.9a8.37,8.37,0,0,0-.06-1.27,1.67,1.67,0,0,0-.17-.52,1.07,1.07,0,0,0-.33-.33,3.24,3.24,0,0,0-.8-.29v-.59h5v.59a2.59,2.59,0,0,0-.93.38,1.06,1.06,0,0,0-.36.63,6.91,6.91,0,0,0-.1,1.4v8.5a6.67,6.67,0,0,0,.25,2,2.9,2.9,0,0,0,.69,1.23,2.59,2.59,0,0,0,1.06.64,5,5,0,0,0,1.52.2,3.47,3.47,0,0,0,1.47-.29,2.62,2.62,0,0,0,1.06-.89,3.56,3.56,0,0,0,.58-1.47,13.73,13.73,0,0,0,.16-2.36v-7.5a6.64,6.64,0,0,0-.1-1.43,1.15,1.15,0,0,0-.34-.59,2.67,2.67,0,0,0-1-.39v-.59h4.79v.59a2.56,2.56,0,0,0-1,.39,1.13,1.13,0,0,0-.36.63,7.1,7.1,0,0,0-.09,1.39Z"/><path class="c" d="M249.82,180.49c.29.48.53.9.73,1.26s.4.76.61,1.21h.16c0-.49-.07-1.46-.11-2.91s0-2.76,0-3.93v-2.52a12.08,12.08,0,0,0,0-1.21,1.46,1.46,0,0,0-.18-.59,1,1,0,0,0-.35-.33,3.9,3.9,0,0,0-.77-.28v-.59h4.32v.59a3.63,3.63,0,0,0-.76.26,1.07,1.07,0,0,0-.36.31,1.38,1.38,0,0,0-.21.58,7.5,7.5,0,0,0-.07,1.26v13.46h-1.5l-6.69-11.21q-.63-1-.89-1.52t-.49-.95H243q.09.92.12,3.34t0,4.82V184a8.85,8.85,0,0,0,.06,1.18,1.55,1.55,0,0,0,.18.59,1,1,0,0,0,.37.36,3.21,3.21,0,0,0,.8.29V187h-4.38v-.59a2.4,2.4,0,0,0,1-.43,1.16,1.16,0,0,0,.33-.66,8.44,8.44,0,0,0,.08-1.32V173.59a8.33,8.33,0,0,0-.06-1.2,1.57,1.57,0,0,0-.2-.59,1.08,1.08,0,0,0-.37-.34,4.08,4.08,0,0,0-.78-.28v-.59h3.76Z"/><path class="c" d="M260.57,185.87c.32,0,.79,0,1.42,0a8.52,8.52,0,0,0,1.8-.17,5.09,5.09,0,0,0,1.44-.53,4,4,0,0,0,1.16-1,5.6,5.6,0,0,0,.84-1.48,8.57,8.57,0,0,0,.48-1.85,15.72,15.72,0,0,0,.15-2.23,9.85,9.85,0,0,0-.7-4,4.72,4.72,0,0,0-2-2.29,6.1,6.1,0,0,0-3.06-.72q-.82,0-1.55,0ZM256.91,187v-.59a3.59,3.59,0,0,0,.79-.27,1,1,0,0,0,.37-.34,1.58,1.58,0,0,0,.19-.59,9.3,9.3,0,0,0,.06-1.21V173.59a9.35,9.35,0,0,0-.06-1.22,1.44,1.44,0,0,0-.2-.58,1.05,1.05,0,0,0-.36-.33,4.17,4.17,0,0,0-.79-.28v-.59h5.26a11.63,11.63,0,0,1,3.72.5,6.45,6.45,0,0,1,2.44,1.47,6,6,0,0,1,1.49,2.42,10.76,10.76,0,0,1,.49,3.45,12.37,12.37,0,0,1-.46,3.57,7.08,7.08,0,0,1-1.35,2.59,6.31,6.31,0,0,1-1.88,1.5,7.21,7.21,0,0,1-2.14.68,20.27,20.27,0,0,1-3.22.2Z"/><path class="c" d="M276,180.5h5l-2.28-7.74Zm4.61,6.48v-.59a3.86,3.86,0,0,0,.89-.26,1,1,0,0,0,.44-.4A1.39,1.39,0,0,0,282,185a4.32,4.32,0,0,0-.09-.88c-.07-.32-.16-.67-.27-1.06l-.45-1.55h-5.59l-.41,1.18a11.81,11.81,0,0,0-.41,1.34,4,4,0,0,0-.1.83,1.37,1.37,0,0,0,.37,1.06,2,2,0,0,0,1.12.44V187h-5.13v-.59a1.8,1.8,0,0,0,1.17-.78,8,8,0,0,0,1-1.92l5-13.29h1.9l4.08,13.39a13.25,13.25,0,0,0,.51,1.43,2.24,2.24,0,0,0,.54.77,1.93,1.93,0,0,0,.85.41V187Z"/><path class="c" d="M285.68,170.6h13v4.18h-1.18a11.67,11.67,0,0,0-.52-1.63,3.23,3.23,0,0,0-.55-.91,1.71,1.71,0,0,0-.61-.44,2.88,2.88,0,0,0-1-.13h-1.52v12.29a6.31,6.31,0,0,0,.08,1.13,1.86,1.86,0,0,0,.24.67,1.14,1.14,0,0,0,.44.39,4.15,4.15,0,0,0,.86.27V187h-5.49v-.59a5.38,5.38,0,0,0,.64-.18,1.46,1.46,0,0,0,.45-.23,1.12,1.12,0,0,0,.29-.35A2.14,2.14,0,0,0,291,185a6.57,6.57,0,0,0,.07-1.09V171.65h-1.51a3.44,3.44,0,0,0-.93.11,1.5,1.5,0,0,0-.68.45,3.32,3.32,0,0,0-.57,1,11.43,11.43,0,0,0-.49,1.59h-1.19Z"/><path class="c" d="M304.57,184a9,9,0,0,0,.05,1.18,1.71,1.71,0,0,0,.18.59,1,1,0,0,0,.37.36,3.21,3.21,0,0,0,.8.29V187h-5.07v-.59a2.39,2.39,0,0,0,1-.43,1.14,1.14,0,0,0,.33-.66,8,8,0,0,0,.08-1.32V173.59a9.2,9.2,0,0,0-.06-1.2,1.51,1.51,0,0,0-.2-.59,1,1,0,0,0-.36-.34,4.15,4.15,0,0,0-.78-.28v-.59H306v.59a3.29,3.29,0,0,0-.76.26,1,1,0,0,0-.37.33,1.44,1.44,0,0,0-.21.59,8,8,0,0,0-.07,1.22Z"/><path class="c" d="M311.33,178.59a11.74,11.74,0,0,0,1.07,5.6,3.41,3.41,0,0,0,3.14,1.92,3.16,3.16,0,0,0,2.22-.84,5.07,5.07,0,0,0,1.37-2.44,13.68,13.68,0,0,0,.46-3.76,14.87,14.87,0,0,0-.54-4.34,5.21,5.21,0,0,0-1.46-2.5,3.22,3.22,0,0,0-2.15-.78,3.33,3.33,0,0,0-1.86.5,3.91,3.91,0,0,0-1.28,1.43,7.28,7.28,0,0,0-.75,2.25,16.94,16.94,0,0,0-.23,2.94m3.95,8.58a7,7,0,0,1-2.62-.48,5.07,5.07,0,0,1-2-1.48,7,7,0,0,1-1.31-2.56,13.28,13.28,0,0,1-.46-3.73,11.71,11.71,0,0,1,.82-4.6,6.38,6.38,0,0,1,2.34-2.92,6.24,6.24,0,0,1,3.52-1,6.5,6.5,0,0,1,3.59.94,5.74,5.74,0,0,1,2.2,2.77,13.82,13.82,0,0,1-.1,9.2,6.18,6.18,0,0,1-2.37,2.89A6.56,6.56,0,0,1,315.28,187.17Z"/><path class="c" d="M334.58,180.49c.29.48.53.9.73,1.26s.4.76.61,1.21h.16c0-.49-.07-1.46-.11-2.91s0-2.76,0-3.93v-2.52a12.08,12.08,0,0,0,0-1.21,1.46,1.46,0,0,0-.18-.59,1,1,0,0,0-.35-.33,3.9,3.9,0,0,0-.77-.28v-.59h4.32v.59a3.63,3.63,0,0,0-.76.26,1.07,1.07,0,0,0-.36.31,1.38,1.38,0,0,0-.21.58,7.5,7.5,0,0,0-.07,1.26v13.46H336l-6.69-11.21q-.63-1-.89-1.52t-.49-.95h-.2q.09.92.12,3.34t0,4.82V184a8.84,8.84,0,0,0,.06,1.18,1.55,1.55,0,0,0,.18.59,1,1,0,0,0,.37.36,3.21,3.21,0,0,0,.8.29V187h-4.38v-.59a2.4,2.4,0,0,0,1-.43,1.16,1.16,0,0,0,.33-.66,8.44,8.44,0,0,0,.08-1.32V173.59a8.33,8.33,0,0,0-.06-1.2,1.57,1.57,0,0,0-.2-.59,1.08,1.08,0,0,0-.37-.34,4.08,4.08,0,0,0-.78-.28v-.59h3.76Z"/></svg>