<?xml version="1.0" encoding="utf-8"?>
<!-- Generator: Adobe Illustrator 21.0.2, SVG Export Plug-In . SVG Version: 6.00 Build 0)  -->
<svg version="1.1" id="Layer_1" xmlns="http://www.w3.org/2000/svg" xmlns:xlink="http://www.w3.org/1999/xlink" x="0px" y="0px"
	 viewBox="0 0 68.4 96.2" style="enable-background:new 0 0 68.4 96.2;" xml:space="preserve">
<style type="text/css">
	.st0{fill:#231F20;}
	.st1{fill:#ED1C24;}
	.st2{fill:#00AEEF;}
	.st3{fill:#00A651;}
	.st4{fill:#FFFFFF;}
</style>
<title>atu-en</title>
<path class="st0" d="M65.7,90.7l-1.8,3.5v1.9h-1.2v-1.9L61,90.7h1.4l0.9,2c0,0,0.1,0.2,0.1,0.4l0,0c0-0.1,0.1-0.3,0.1-0.4l0.9-2
	L65.7,90.7z M58.7,91.7h-1.5v4.4h-1.3v-4.4h-1.5v-1h4.3L58.7,91.7z M52.1,90.7v0.9h-0.4v3.5h0.4v1h-2.1v-0.9h0.4v-3.5h-0.4v-0.9
	H52.1z M43.8,95.9v-1.2c0.4,0.4,0.9,0.5,1.5,0.6c0.1,0,0.3,0,0.4,0c0.1,0,0.2-0.1,0.3-0.1c0.1,0,0.1-0.1,0.2-0.2
	c0-0.1,0.1-0.1,0.1-0.2c0-0.1,0-0.2-0.1-0.3c-0.1-0.1-0.2-0.2-0.2-0.2c-0.1-0.1-0.2-0.1-0.4-0.2L45,93.8c-0.4-0.1-0.7-0.4-0.9-0.6
	c-0.2-0.3-0.3-0.6-0.3-0.9c0-0.3,0.1-0.5,0.2-0.7c0.1-0.2,0.3-0.4,0.5-0.5c0.2-0.1,0.4-0.2,0.7-0.3c0.3-0.1,0.5-0.1,0.8-0.1
	c0.3,0,0.5,0,0.8,0.1c0.2,0,0.4,0.1,0.6,0.2V92c-0.1-0.1-0.2-0.1-0.3-0.2l-0.3-0.1l-0.3-0.1h-0.3c-0.1,0-0.3,0-0.4,0
	c-0.1,0-0.2,0.1-0.3,0.1c-0.1,0-0.1,0.1-0.2,0.2C45,92,45,92,45,92.1c0,0.1,0,0.2,0.1,0.2c0.1,0.1,0.1,0.1,0.2,0.2
	c0.1,0.1,0.2,0.1,0.3,0.2l0.4,0.2c0.2,0.1,0.4,0.2,0.6,0.3c0.2,0.1,0.3,0.2,0.4,0.3c0.1,0.1,0.2,0.3,0.3,0.4
	c0.2,0.4,0.1,0.9-0.1,1.3c-0.1,0.2-0.3,0.4-0.5,0.5c-0.2,0.1-0.4,0.2-0.7,0.3c-0.3,0.1-0.5,0.1-0.8,0.1c-0.3,0-0.6,0-0.8-0.1
	C44.2,96.1,44,96,43.8,95.9L43.8,95.9z M38.1,91.6v1.5h0.5c0.2,0,0.5-0.1,0.6-0.2c0.2-0.1,0.2-0.4,0.2-0.6c0-0.5-0.3-0.7-0.8-0.7
	L38.1,91.6z M41.4,96.1H40l-0.9-1.4L39,94.4c-0.1-0.1-0.1-0.1-0.2-0.2c-0.1-0.1-0.1-0.1-0.2-0.1c-0.1,0-0.1,0-0.2,0h-0.3v2h-1.2
	v-5.4h1.9c1.3,0,2,0.5,2,1.5c0,0.2,0,0.4-0.1,0.5c-0.1,0.2-0.1,0.3-0.2,0.4c-0.1,0.1-0.2,0.2-0.4,0.3c-0.2,0.1-0.3,0.2-0.5,0.2l0,0
	c0.1,0,0.2,0.1,0.2,0.1c0.1,0.1,0.2,0.1,0.2,0.2l0.2,0.2l0.2,0.2L41.4,96.1z M34,96.1h-3.2v-5.4h3.1v1H32v1.2h1.8v1H32v1.2h2
	L34,96.1z M28,90.7l-1.9,5.4h-1.4L23,90.7h1.3l1.1,3.8c0.1,0.2,0.1,0.4,0.1,0.5l0,0c0-0.2,0.1-0.4,0.1-0.6l1.1-3.8H28z M20.7,90.7
	v0.9h-0.5v3.5h0.5v0.9h-2.1v-0.9H19v-3.5h-0.5v-0.9L20.7,90.7z M15.7,96.1h-1.2l-2.2-3.4c-0.1-0.1-0.2-0.3-0.3-0.4l0,0
	c0,0.2,0,0.5,0,0.9v3h-1.1v-5.4h1.3l2.1,3.3l0.3,0.4l0,0c0-0.2,0-0.5,0-0.7v-3h1.2L15.7,96.1z M7.6,93.8c0,1.6-0.8,2.4-2.3,2.4
	s-2.2-0.8-2.2-2.4v-3.1h1.2v3.1c0,0.9,0.3,1.3,1,1.3c0.7,0,1-0.4,1-1.3v-3.2h1.2L7.6,93.8z M65.5,87.4h-3.2V82h1.2v4.4h2L65.5,87.4z
	 M59.7,85.2l-0.6-1.8c0-0.2-0.1-0.3-0.1-0.5l0,0c0,0.2,0,0.3-0.1,0.5l-0.6,1.8L59.7,85.2z M61.7,87.4h-1.3L60,86.2h-1.9l-0.4,1.2
	h-1.3l2-5.4h1.4L61.7,87.4z M56,87.2c-0.5,0.2-1,0.3-1.6,0.3c-0.7,0.1-1.5-0.2-2-0.7c-0.5-0.5-0.7-1.2-0.7-1.9
	c0-0.8,0.3-1.5,0.8-2.1c0.6-0.5,1.3-0.8,2.1-0.8c0.5,0,0.9,0.1,1.3,0.2v1.2c-0.4-0.2-0.8-0.3-1.2-0.3c-0.5,0-0.9,0.2-1.2,0.5
	c-0.3,0.4-0.5,0.8-0.5,1.3c0,0.5,0.1,0.9,0.4,1.2c0.3,0.3,0.7,0.5,1.2,0.5c0.5,0,1-0.1,1.4-0.3L56,87.2z M51.3,82v0.9h-0.4v3.5h0.4
	v0.9h-2.1v-0.9h0.4v-3.5h-0.4v-0.9L51.3,82z M48.6,87c-0.6,0.3-1.3,0.5-2,0.5c-0.8,0-1.5-0.2-2.1-0.7c-0.5-0.5-0.8-1.3-0.8-2
	c0-0.8,0.3-1.5,0.8-2.1c0.6-0.6,1.4-0.8,2.2-0.8c0.5,0,1,0.1,1.5,0.2v1.1c-0.5-0.3-1-0.4-1.5-0.4c-0.5,0-0.9,0.2-1.2,0.5
	c-0.6,0.8-0.6,1.8-0.1,2.6c0.3,0.3,0.7,0.5,1.2,0.5c0.2,0,0.5,0,0.7-0.1v-1h-1v-1h2.3L48.6,87z M40.6,82.9c-0.4,0-0.8,0.2-1,0.5
	c-0.3,0.4-0.4,0.8-0.4,1.3c0,0.5,0.1,0.9,0.4,1.3c0.2,0.3,0.6,0.5,1,0.5c0.4,0,0.8-0.2,1-0.4c0.3-0.4,0.4-0.8,0.4-1.3
	c0-0.5-0.1-0.9-0.4-1.3C41.4,83.1,41,82.9,40.6,82.9L40.6,82.9z M40.5,87.4c-0.7,0-1.4-0.3-1.9-0.8c-0.5-0.5-0.8-1.3-0.7-2
	c0-0.8,0.2-1.5,0.7-2.1c0.5-0.5,1.2-0.8,2-0.8c0.7,0,1.4,0.3,1.9,0.8c0.5,0.5,0.7,1.3,0.7,2c0,0.8-0.2,1.5-0.7,2.1
	C42,87.1,41.3,87.4,40.5,87.4L40.5,87.4z M37.7,87.3h-3.1v-5.4h1.2v4.4h2L37.7,87.3z M31,82.9c-0.4,0-0.8,0.2-1,0.5
	c-0.3,0.4-0.4,0.8-0.4,1.3c0,0.5,0.1,0.9,0.4,1.3c0.2,0.3,0.6,0.5,1,0.5c0.4,0,0.8-0.2,1-0.4c0.3-0.4,0.4-0.8,0.4-1.3
	c0-0.5-0.1-0.9-0.4-1.3C31.8,83.1,31.4,82.9,31,82.9L31,82.9z M30.9,87.4c-0.7,0-1.4-0.3-1.9-0.8c-0.5-0.5-0.8-1.3-0.7-2
	c0-0.8,0.2-1.5,0.7-2.1c0.5-0.5,1.2-0.8,2-0.8c0.7,0,1.4,0.3,1.9,0.8c0.5,0.5,0.7,1.3,0.7,2c0,0.8-0.2,1.5-0.7,2.1
	C32.4,87.1,31.7,87.4,30.9,87.4L30.9,87.4z M27.4,87.3h-1.2L24,83.9c-0.1-0.1-0.2-0.3-0.3-0.4l0,0c0,0.2,0,0.5,0,0.9v3h-1.1v-5.4
	h1.3l2.1,3.3l0.3,0.4l0,0c0-0.2,0-0.5,0-0.7v-3h1.1L27.4,87.3z M21.3,87.3h-1.1v-2.2h-2.3v2.2h-1.2v-5.4h1.2v2.2h2.3v-2.1h1.2
	L21.3,87.3z M15.7,87.1c-0.5,0.2-1,0.3-1.5,0.3c-0.7,0.1-1.5-0.2-2-0.7c-0.5-0.5-0.7-1.2-0.7-1.9c0-0.8,0.3-1.5,0.8-2.1
	c0.6-0.5,1.3-0.8,2.1-0.8c0.5,0,0.9,0.1,1.3,0.2v1.2c-0.4-0.2-0.8-0.3-1.2-0.3c-0.5,0-0.9,0.2-1.2,0.5c-0.3,0.4-0.5,0.8-0.5,1.3
	c0,0.5,0.1,0.9,0.4,1.2c0.3,0.3,0.7,0.5,1.2,0.5c0.5,0,0.9-0.1,1.3-0.3L15.7,87.1z M10.9,87.3H7.8v-5.4h3.1v1H9v1.2h1.8v1H9v1.2h2
	L10.9,87.3z M6.9,82.9H5.5v4.4H4.3v-4.4H2.8v-1H7L6.9,82.9z M64.9,78.6h-1.1l-2.2-3.4c-0.1-0.1-0.2-0.3-0.3-0.4l0,0
	c0,0.2,0,0.5,0,0.9v3h-1.2v-5.4h1.3l2.1,3.3l0.3,0.4l0,0c0-0.2,0-0.5,0-0.7v-3H65L64.9,78.6z M55.7,76.5l-0.6-1.8
	c0-0.2-0.1-0.3-0.1-0.5l0,0c0,0.2,0,0.3-0.1,0.5l-0.6,1.8H55.7z M57.7,78.6h-1.3L56,77.4h-1.9l-0.4,1.2h-1.3l2-5.4h1.4L57.7,78.6z
	 M50.2,76.5c0,0.6-0.1,1.2-0.5,1.7c-0.4,0.4-0.9,0.6-1.5,0.6c-0.3,0-0.5,0-0.8-0.2v-1.2c0.2,0.2,0.4,0.2,0.7,0.2
	c0.6,0,0.8-0.4,0.8-1.2v-3.2h1.2L50.2,76.5z M45.4,73.2v0.9H45v3.5h0.4v0.9h-2.1v-0.9h0.4v-3.5h-0.4v-0.9H45.4z M39.3,76.5l-0.6-1.8
	c0-0.2-0.1-0.3-0.1-0.5l0,0c0,0.2,0,0.3-0.1,0.5l-0.6,1.8L39.3,76.5z M41.3,78.6h-1.3l-0.4-1.2h-1.9l-0.4,1.2h-1.3l2-5.4h1.4
	L41.3,78.6z M31,76.3v1.4h0.7c0.2,0,0.5-0.1,0.7-0.2c0.2-0.1,0.3-0.3,0.2-0.5c0-0.2-0.1-0.4-0.2-0.5c-0.2-0.1-0.4-0.2-0.7-0.2
	L31,76.3z M31,74.1v1.3h0.5c0.2,0,0.4-0.1,0.6-0.2c0.1-0.1,0.2-0.3,0.2-0.5c0-0.4-0.3-0.6-0.9-0.6H31z M29.8,78.6v-5.4h2
	c0.5,0,1,0.1,1.4,0.3c0.3,0.2,0.5,0.6,0.5,0.9c0,0.3-0.1,0.6-0.3,0.8c-0.2,0.2-0.5,0.4-0.8,0.5l0,0c0.3,0,0.7,0.2,0.9,0.4
	c0.2,0.2,0.3,0.5,0.3,0.9c0,0.5-0.2,0.9-0.5,1.2c-0.4,0.3-0.9,0.5-1.5,0.4L29.8,78.6z M24.2,74.1v1.5h0.5c0.2,0,0.5-0.1,0.6-0.2
	c0.2-0.1,0.2-0.4,0.2-0.6c0-0.5-0.3-0.7-0.8-0.7L24.2,74.1z M27.5,78.6h-1.4l-0.8-1.4l-0.2-0.3c-0.1-0.1-0.1-0.1-0.2-0.2
	c-0.1-0.1-0.1-0.1-0.2-0.1c-0.1,0-0.1,0-0.2,0h-0.3v2.1h-1.2v-5.4h1.9c1.3,0,2,0.5,2,1.5c0,0.2,0,0.4-0.1,0.5
	c-0.1,0.2-0.1,0.3-0.2,0.4c-0.1,0.1-0.2,0.2-0.4,0.3c-0.2,0.1-0.3,0.2-0.5,0.2l0,0c0.1,0,0.2,0.1,0.2,0.1c0.1,0.1,0.2,0.1,0.2,0.2
	l0.2,0.2l0.2,0.2L27.5,78.6z M20.3,78.6H17v-5.4h3.1v1h-1.9v1.2H20v1h-1.8v1.2h2L20.3,78.6z M14.5,78.6h-4.4v-0.7l2.8-3.7h-2.6v-1
	h4.2v0.7l-2.7,3.7h2.7L14.5,78.6z M6,76.5l-0.6-1.8c0-0.2-0.1-0.3-0.1-0.5l0,0c0,0.2,0,0.3-0.1,0.5l-0.6,1.8L6,76.5z M8,78.6H6.7
	l-0.4-1.2H4.4L4,78.6H2.7l2-5.4h1.4L8,78.6z"/>
<rect class="st1" width="68.4" height="68.4"/>
<rect class="st2" width="68.4" height="2.7"/>
<rect y="65.6" class="st3" width="68.4" height="2.7"/>
<polygon class="st4" points="34.2,8.7 48.3,34.4 62.4,60 34.2,60 6,60 20.1,34.4 "/>
<path class="st0" d="M52.2,51.4c0,4.3-2,6.4-6,6.4c-3.9,0-5.8-2.1-5.8-6.2v-8.2h3.2v8.2c0,2.3,0.9,3.4,2.7,3.4s2.7-1.1,2.6-3.3v-8.3
	h3.2V51.4z M38.7,46h-4v11.6h-3.3V46h-4v-2.6h11.3V46z M23.2,51.9l-1.5-4.8c-0.1-0.4-0.2-0.8-0.2-1.3h-0.1c0,0.4-0.1,0.8-0.2,1.2
	l-1.5,4.8L23.2,51.9z M28.4,57.5h-3.5l-1-3.2h-5l-1,3.2h-3.5l5.2-14.2h3.8L28.4,57.5z"/>
<path class="st0" d="M29.1,25.6l5.1,5.1l5.1-5.1l-0.4-0.4l-4.3,4.3L34.2,30l-0.4-0.4l-4.3-4.3L29.1,25.6z M29.8,24.8l4.3,4.3
	l4.3-4.3l-0.4-0.4l-3.9,3.9l-3.9-3.9L29.8,24.8z M33.8,31.1L28.7,26l-1.3,1.3l-0.3-0.2l-0.2-0.2l-0.4,0.4l0.2,0.2l7.1,7.1l0.2,0.2
	l0.2,0.2l0.4-0.4l7.1-7.1l0.2-0.2l-0.4-0.4l-0.2,0.2L41,27.4l-1.3-1.3l-5.1,5l-0.4,0.4L33.8,31.1z"/>
</svg>
