<svg xmlns="http://www.w3.org/2000/svg" viewBox="0 0 130 90"><defs><style>.a{fill:#31acc8;}</style></defs><title>banner_text</title><path class="a" d="M17.68,46.73a14.88,14.88,0,0,1,5,.81,11.27,11.27,0,0,1,3.89,2.29,10.36,10.36,0,0,1,2.52,3.56A11.51,11.51,0,0,1,30,58a12.33,12.33,0,0,1-.64,4.05,16.81,16.81,0,0,1-1.73,3.56,23.94,23.94,0,0,1-2.53,3.29q-1.45,1.59-3,3.23l-8.93,9.12a21.52,21.52,0,0,1,2.57-.59,15,15,0,0,1,2.41-.21H28.28a2.41,2.41,0,0,1,1.74.62,2.15,2.15,0,0,1,.64,1.63v4.05H3.5V84.52a4,4,0,0,1,1.2-2.79l12-12q1.51-1.53,2.7-2.93a19.74,19.74,0,0,0,2-2.77,12.68,12.68,0,0,0,1.23-2.78,10.26,10.26,0,0,0,.42-3,7,7,0,0,0-.41-2.51,4.82,4.82,0,0,0-3-2.93,7.14,7.14,0,0,0-2.37-.37,6.31,6.31,0,0,0-4,1.23A6.45,6.45,0,0,0,11.08,57a2.75,2.75,0,0,1-.9,1.49,2.49,2.49,0,0,1-1.53.45,5.59,5.59,0,0,1-.9-.08L4.18,58.2a14.68,14.68,0,0,1,1.59-5,12,12,0,0,1,2.94-3.59,12.2,12.2,0,0,1,4.05-2.16A16.17,16.17,0,0,1,17.68,46.73Z"/><path class="a" d="M63.36,67a32.44,32.44,0,0,1-1.11,9,18.43,18.43,0,0,1-3.07,6.31A12.39,12.39,0,0,1,54.55,86a13.72,13.72,0,0,1-5.76,1.22A13.53,13.53,0,0,1,43.05,86a12.34,12.34,0,0,1-4.59-3.71,18.4,18.4,0,0,1-3-6.31,32.83,32.83,0,0,1-1.1-9,32.8,32.8,0,0,1,1.1-9,18.41,18.41,0,0,1,3-6.3,12.35,12.35,0,0,1,4.59-3.71,13.54,13.54,0,0,1,5.74-1.22,13.72,13.72,0,0,1,5.76,1.22,12.41,12.41,0,0,1,4.63,3.71A18.44,18.44,0,0,1,62.25,58,32.4,32.4,0,0,1,63.36,67Zm-7,0a33.49,33.49,0,0,0-.63-7.12,14.34,14.34,0,0,0-1.68-4.49A6.15,6.15,0,0,0,51.64,53a6.4,6.4,0,0,0-2.85-.67A6.25,6.25,0,0,0,46,53a6.09,6.09,0,0,0-2.4,2.34,14.36,14.36,0,0,0-1.66,4.49A34.16,34.16,0,0,0,41.31,67a34.16,34.16,0,0,0,.62,7.12,14.35,14.35,0,0,0,1.66,4.49A6.08,6.08,0,0,0,46,80.92a6.24,6.24,0,0,0,2.81.67,6.39,6.39,0,0,0,2.85-.67,6.14,6.14,0,0,0,2.42-2.34,14.33,14.33,0,0,0,1.68-4.49A33.5,33.5,0,0,0,56.37,67Z"/><path class="a" d="M72.09,81.7h8V58.61q0-1.34.08-2.82l-5.7,4.77a2,2,0,0,1-.73.41,2.55,2.55,0,0,1-.73.11,2.16,2.16,0,0,1-1-.23,1.86,1.86,0,0,1-.67-.53l-2.14-2.93L81.32,47.11h5.56V81.7H94v5.07H72.09Z"/><path class="a" d="M126.5,47.17V50.1a6.48,6.48,0,0,1-.29,2.12,12.48,12.48,0,0,1-.56,1.36l-15,30.89a4.63,4.63,0,0,1-1.31,1.63,3.61,3.61,0,0,1-2.3.67h-4.9L117.49,56.5a15.79,15.79,0,0,1,2.14-3.2H100.68a1.59,1.59,0,0,1-1.56-1.56V47.17Z"/><path class="a" d="M13.39,3V5.29H6.44V9.64h5.47v2.24H6.44v4.43h6.95v2.33H3.5V3Z"/><path class="a" d="M29.83,10.81A8.48,8.48,0,0,1,29.26,14a7.11,7.11,0,0,1-4.12,4.1,8.8,8.8,0,0,1-3.24.57h-6V3h6a8.73,8.73,0,0,1,3.24.58,7.34,7.34,0,0,1,2.5,1.62,7.22,7.22,0,0,1,1.62,2.48A8.47,8.47,0,0,1,29.83,10.81Zm-3,0A7.19,7.19,0,0,0,26.5,8.5a4.91,4.91,0,0,0-1-1.73A4.26,4.26,0,0,0,24,5.67a5.35,5.35,0,0,0-2.07-.38h-3v11h3A5.35,5.35,0,0,0,24,15.95a4.26,4.26,0,0,0,1.56-1.09,4.91,4.91,0,0,0,1-1.73A7.19,7.19,0,0,0,26.85,10.81Z"/><path class="a" d="M38.43,16.29A3.85,3.85,0,0,0,39.94,16a3.15,3.15,0,0,0,1.13-.79,3.46,3.46,0,0,0,.7-1.24A5.09,5.09,0,0,0,42,12.36V3h2.92v9.39a7.24,7.24,0,0,1-.45,2.59,5.84,5.84,0,0,1-1.3,2,5.91,5.91,0,0,1-2,1.34,7.85,7.85,0,0,1-5.42,0,5.74,5.74,0,0,1-3.33-3.39,7.24,7.24,0,0,1-.45-2.59V3h2.92v9.38A5.09,5.09,0,0,0,35.09,14a3.55,3.55,0,0,0,.7,1.24,3.06,3.06,0,0,0,1.12.8A3.85,3.85,0,0,0,38.43,16.29Z"/><path class="a" d="M58.68,15a.55.55,0,0,1,.41.18l1.15,1.25a6.31,6.31,0,0,1-2.35,1.81,8.08,8.08,0,0,1-3.34.63,7.9,7.9,0,0,1-3.14-.6A6.91,6.91,0,0,1,49,16.57,7.26,7.26,0,0,1,47.52,14,9.52,9.52,0,0,1,47,10.81a8.66,8.66,0,0,1,.59-3.24,7.31,7.31,0,0,1,4.19-4.18A8.74,8.74,0,0,1,55,2.8a7.72,7.72,0,0,1,3.05.56,7.13,7.13,0,0,1,2.24,1.48l-1,1.36a.88.88,0,0,1-.22.23.63.63,0,0,1-.37.1.86.86,0,0,1-.51-.2,6.23,6.23,0,0,0-.66-.42,5.38,5.38,0,0,0-1-.42A5.85,5.85,0,0,0,53,5.67a4.51,4.51,0,0,0-1.59,1.1,5.06,5.06,0,0,0-1,1.74,6.68,6.68,0,0,0-.37,2.3,6.86,6.86,0,0,0,.37,2.35,5.17,5.17,0,0,0,1,1.73A4.32,4.32,0,0,0,52.86,16a4.65,4.65,0,0,0,1.86.37,8.12,8.12,0,0,0,1.08-.06,4.61,4.61,0,0,0,.89-.21,4,4,0,0,0,.77-.36,4.8,4.8,0,0,0,.72-.55,1,1,0,0,1,.23-.16A.58.58,0,0,1,58.68,15Z"/><path class="a" d="M76.21,18.65H74a1,1,0,0,1-.62-.19A1.07,1.07,0,0,1,73,18l-1.17-3.2H65.32L64.15,18a1,1,0,0,1-.34.46,1,1,0,0,1-.62.21H60.92L67.08,3h3ZM66.07,12.73h5L69.16,7.51q-.13-.35-.29-.82t-.31-1q-.15.55-.3,1T68,7.54Z"/><path class="a" d="M87.28,3v2.4H82.57V18.65H79.65V5.37H74.91V3Z"/><path class="a" d="M92.42,18.65H89.49V3h2.93Z"/><path class="a" d="M111,10.81A8.69,8.69,0,0,1,110.4,14a7.55,7.55,0,0,1-1.62,2.54,7.31,7.31,0,0,1-2.5,1.68,9,9,0,0,1-6.49,0,7.36,7.36,0,0,1-2.52-1.68A7.52,7.52,0,0,1,95.66,14a8.69,8.69,0,0,1-.57-3.19,8.69,8.69,0,0,1,.57-3.19,7.52,7.52,0,0,1,1.62-2.54A7.35,7.35,0,0,1,99.8,3.4,8.49,8.49,0,0,1,103,2.8a8.38,8.38,0,0,1,3.24.61,7.42,7.42,0,0,1,2.5,1.67,7.5,7.5,0,0,1,1.62,2.54A8.69,8.69,0,0,1,111,10.81Zm-3,0a7.3,7.3,0,0,0-.34-2.31,4.88,4.88,0,0,0-1-1.74,4.22,4.22,0,0,0-1.56-1.09,5.82,5.82,0,0,0-4.14,0,4.26,4.26,0,0,0-1.57,1.09,4.9,4.9,0,0,0-1,1.74,7.19,7.19,0,0,0-.35,2.31,7.19,7.19,0,0,0,.35,2.31,4.85,4.85,0,0,0,1,1.73A4.29,4.29,0,0,0,101,15.95a5.82,5.82,0,0,0,4.14,0,4.25,4.25,0,0,0,1.56-1.09,4.83,4.83,0,0,0,1-1.73A7.3,7.3,0,0,0,108,10.81Z"/><path class="a" d="M115.13,3a.76.76,0,0,1,.23.07.77.77,0,0,1,.2.14,2.2,2.2,0,0,1,.22.24L124,13.92q0-.38-.06-.74c0-.24,0-.47,0-.68V3h2.57V18.65H125a1.33,1.33,0,0,1-.57-.11,1.28,1.28,0,0,1-.44-.39l-8.2-10.44q0,.35,0,.69t0,.62v9.63h-2.57V3h1.53Z"/><path class="a" d="M13.76,34.66a.48.48,0,0,1,.36.16l1,1.09a5.51,5.51,0,0,1-2,1.58,7,7,0,0,1-2.91.55,6.88,6.88,0,0,1-2.73-.52,6,6,0,0,1-2.07-1.44A6.31,6.31,0,0,1,4,33.85a8.29,8.29,0,0,1-.46-2.8,7.55,7.55,0,0,1,.51-2.82,6.36,6.36,0,0,1,3.65-3.64,7.62,7.62,0,0,1,2.85-.51,6.71,6.71,0,0,1,2.66.49,6.21,6.21,0,0,1,1.95,1.29L14.34,27a.78.78,0,0,1-.19.2.55.55,0,0,1-.33.08.74.74,0,0,1-.44-.17,5.49,5.49,0,0,0-.58-.37,4.7,4.7,0,0,0-.88-.37,4.55,4.55,0,0,0-1.35-.17,4.57,4.57,0,0,0-1.77.33,3.94,3.94,0,0,0-1.39,1A4.41,4.41,0,0,0,6.5,29a5.81,5.81,0,0,0-.33,2,6,6,0,0,0,.33,2,4.5,4.5,0,0,0,.88,1.51,3.77,3.77,0,0,0,1.31.94,4.05,4.05,0,0,0,1.62.33,7.05,7.05,0,0,0,.94-.06,4,4,0,0,0,.77-.18,3.41,3.41,0,0,0,.67-.32,4.18,4.18,0,0,0,.63-.48.89.89,0,0,1,.2-.14A.5.5,0,0,1,13.76,34.66Z"/><path class="a" d="M30.12,31.05a7.57,7.57,0,0,1-.5,2.78A6.59,6.59,0,0,1,28.21,36,6.37,6.37,0,0,1,26,37.5a7.88,7.88,0,0,1-5.65,0A6.41,6.41,0,0,1,18.2,36a6.54,6.54,0,0,1-1.41-2.21,8,8,0,0,1,0-5.56,6.54,6.54,0,0,1,1.41-2.21,6.41,6.41,0,0,1,2.19-1.46,7.39,7.39,0,0,1,2.83-.52A7.3,7.3,0,0,1,26,24.6a6.47,6.47,0,0,1,2.18,1.46,6.54,6.54,0,0,1,1.41,2.21A7.57,7.57,0,0,1,30.12,31.05Zm-2.61,0a6.34,6.34,0,0,0-.3-2,4.26,4.26,0,0,0-.85-1.51,3.68,3.68,0,0,0-1.35-1,5.07,5.07,0,0,0-3.6,0,3.71,3.71,0,0,0-1.36,1A4.28,4.28,0,0,0,19.18,29a6.88,6.88,0,0,0,0,4A4.23,4.23,0,0,0,20,34.58a3.73,3.73,0,0,0,1.36.95,5.07,5.07,0,0,0,3.6,0,3.7,3.7,0,0,0,1.35-.95,4.21,4.21,0,0,0,.85-1.51A6.34,6.34,0,0,0,27.52,31.05Z"/><path class="a" d="M33.73,24.24a.65.65,0,0,1,.2.06.69.69,0,0,1,.17.12,2,2,0,0,1,.19.21l7.16,9.13q0-.33-.05-.65t0-.59v-8.3h2.24V37.87H42.32a1.16,1.16,0,0,1-.5-.09,1.11,1.11,0,0,1-.39-.34L34.3,28.35q0,.3,0,.6t0,.54v8.38H32.12V24.23h1.61Z"/><path class="a" d="M55,24.23v2h-6v4h5.11v2H48.95v5.56H46.39V24.23Z"/><path class="a" d="M65.6,24.23v2h-6V30h4.77v2H59.55v3.86h6v2H57V24.23Z"/><path class="a" d="M70.42,32.54v5.33H67.88V24.23H72a8.7,8.7,0,0,1,2.39.29,4.56,4.56,0,0,1,1.63.81A3.12,3.12,0,0,1,77,26.56a4.35,4.35,0,0,1,.09,2.89,3.79,3.79,0,0,1-.58,1.11,4,4,0,0,1-.94.88,5,5,0,0,1-1.28.6,2.52,2.52,0,0,1,.83.78l3.42,5H76.25a1.11,1.11,0,0,1-.56-.13,1.15,1.15,0,0,1-.39-.38L72.43,33a1,1,0,0,0-.35-.35,1.24,1.24,0,0,0-.57-.1Zm0-1.82H72a3.93,3.93,0,0,0,1.25-.18,2.41,2.41,0,0,0,.88-.5,2,2,0,0,0,.51-.75,2.58,2.58,0,0,0,.17-1,1.94,1.94,0,0,0-.68-1.6A3.27,3.27,0,0,0,72,26.19H70.42Z"/><path class="a" d="M88.77,24.23v2h-6V30h4.77v2H82.72v3.86h6v2H80.16V24.23Z"/><path class="a" d="M92.58,24.24a.66.66,0,0,1,.2.06.68.68,0,0,1,.17.12,1.87,1.87,0,0,1,.19.21l7.16,9.13c0-.22,0-.44-.05-.65s0-.41,0-.59v-8.3h2.24V37.87h-1.31a1.16,1.16,0,0,1-.5-.09,1.11,1.11,0,0,1-.39-.34l-7.14-9.09c0,.2,0,.4,0,.6s0,.38,0,.54v8.38H91V24.23h1.61Z"/><path class="a" d="M114.62,34.66a.47.47,0,0,1,.36.16l1,1.09a5.49,5.49,0,0,1-2,1.58A7,7,0,0,1,111,38a6.88,6.88,0,0,1-2.73-.52,6,6,0,0,1-2.07-1.44,6.32,6.32,0,0,1-1.32-2.21,8.28,8.28,0,0,1-.46-2.8,7.54,7.54,0,0,1,.51-2.82,6.36,6.36,0,0,1,3.65-3.64,7.62,7.62,0,0,1,2.85-.51,6.71,6.71,0,0,1,2.66.49,6.23,6.23,0,0,1,1.95,1.29L115.2,27a.79.79,0,0,1-.19.2.55.55,0,0,1-.33.08.74.74,0,0,1-.44-.17,5.46,5.46,0,0,0-.58-.37,4.7,4.7,0,0,0-.88-.37,5.1,5.1,0,0,0-3.12.17,3.94,3.94,0,0,0-1.39,1,4.4,4.4,0,0,0-.91,1.51,5.81,5.81,0,0,0-.33,2,6,6,0,0,0,.33,2,4.48,4.48,0,0,0,.88,1.51,3.77,3.77,0,0,0,1.31.94,4,4,0,0,0,1.62.33,7.05,7.05,0,0,0,.94-.06,4,4,0,0,0,.77-.18,3.43,3.43,0,0,0,.67-.32,4.18,4.18,0,0,0,.63-.48.88.88,0,0,1,.2-.14A.5.5,0,0,1,114.62,34.66Z"/><path class="a" d="M126.5,24.23v2h-6V30h4.77v2h-4.77v3.86h6v2h-8.61V24.23Z"/></svg>