<svg xmlns="http://www.w3.org/2000/svg" viewBox="0 0 123 31"><defs><style>.a{fill:#31acc8;}</style></defs><title>banner_text_extra</title><path class="a" d="M4.36.85v1.3l-.1.7a.66.66,0,0,1-.11.3.33.33,0,0,1-.27.11.33.33,0,0,1-.26-.11.56.56,0,0,1-.12-.3l-.1-.7V.85ZM6,.85v1.3l-.1.7a.65.65,0,0,1-.11.3.38.38,0,0,1-.53,0,.55.55,0,0,1-.12-.3L5,2.15V.85Z"/><path class="a" d="M11.36.85v1H8.48V3.74h2.43v1H8.48V7.36H7.26V.85Z"/><path class="a" d="M13.6,1.39a.65.65,0,0,1-.06.27.73.73,0,0,1-.38.37.7.7,0,0,1-.28.06A.68.68,0,0,1,12.61,2a.71.71,0,0,1-.37-.37.66.66,0,0,1-.06-.27.7.7,0,0,1,.06-.28.72.72,0,0,1,.15-.23.73.73,0,0,1,.22-.15.68.68,0,0,1,.27-.06.7.7,0,0,1,.28.06.74.74,0,0,1,.23.15.74.74,0,0,1,.16.23A.69.69,0,0,1,13.6,1.39Zm-.17,1.35V7.36H12.32V2.74Z"/><path class="a" d="M14.69,7.36V2.74h.68a.27.27,0,0,1,.28.2l.08.36A2.54,2.54,0,0,1,16,3a2.11,2.11,0,0,1,.33-.2,1.67,1.67,0,0,1,.37-.13,1.94,1.94,0,0,1,.43,0,1.65,1.65,0,0,1,.67.13,1.33,1.33,0,0,1,.49.36,1.62,1.62,0,0,1,.3.55,2.39,2.39,0,0,1,.1.71V7.36H17.6V4.42a1,1,0,0,0-.2-.65.72.72,0,0,0-.59-.23,1.16,1.16,0,0,0-.54.13A1.93,1.93,0,0,0,15.8,4V7.36Z"/><path class="a" d="M23.42,7.36h-.5a.54.54,0,0,1-.25,0,.31.31,0,0,1-.13-.19l-.1-.33a3.9,3.9,0,0,1-.34.28,2.12,2.12,0,0,1-.35.2,1.77,1.77,0,0,1-.38.12,2.27,2.27,0,0,1-.45,0,1.78,1.78,0,0,1-.54-.08A1.17,1.17,0,0,1,20,7.11a1.08,1.08,0,0,1-.28-.39,1.39,1.39,0,0,1-.1-.55,1.08,1.08,0,0,1,.14-.52,1.28,1.28,0,0,1,.46-.46A2.91,2.91,0,0,1,21,4.86a5.45,5.45,0,0,1,1.32-.13V4.45a1,1,0,0,0-.2-.69.71.71,0,0,0-.57-.22,1.37,1.37,0,0,0-.45.06,1.71,1.71,0,0,0-.31.14l-.25.14a.5.5,0,0,1-.25.06.32.32,0,0,1-.19-.06A.45.45,0,0,1,20,3.74l-.2-.36a2.74,2.74,0,0,1,1.92-.73,1.84,1.84,0,0,1,.72.13,1.54,1.54,0,0,1,.54.37,1.59,1.59,0,0,1,.33.57,2.15,2.15,0,0,1,.12.72Zm-2.16-.69a1.52,1.52,0,0,0,.32,0,1.23,1.23,0,0,0,.27-.09,1.43,1.43,0,0,0,.25-.15l.24-.21V5.4a4.49,4.49,0,0,0-.81.06,2.15,2.15,0,0,0-.52.16.67.67,0,0,0-.28.22.56.56,0,0,0,.09.7A.75.75,0,0,0,21.26,6.66Z"/><path class="a" d="M24.52,7.36V2.74h.68a.27.27,0,0,1,.28.2l.08.36A2.54,2.54,0,0,1,25.85,3a2.11,2.11,0,0,1,.33-.2,1.67,1.67,0,0,1,.37-.13,1.94,1.94,0,0,1,.43,0,1.65,1.65,0,0,1,.67.13,1.33,1.33,0,0,1,.49.36,1.62,1.62,0,0,1,.3.55,2.39,2.39,0,0,1,.1.71V7.36H27.43V4.42a1,1,0,0,0-.2-.65.72.72,0,0,0-.59-.23,1.16,1.16,0,0,0-.54.13,1.93,1.93,0,0,0-.48.36V7.36Z"/><path class="a" d="M32.88,3.72l-.1.1a.22.22,0,0,1-.14,0,.3.3,0,0,1-.17-.05l-.19-.12A1.44,1.44,0,0,0,32,3.57a1.21,1.21,0,0,0-.38-.05,1.18,1.18,0,0,0-.51.11,1,1,0,0,0-.37.3,1.36,1.36,0,0,0-.22.48,2.58,2.58,0,0,0-.07.64,2.49,2.49,0,0,0,.08.66,1.42,1.42,0,0,0,.23.48,1,1,0,0,0,.36.3,1.09,1.09,0,0,0,.48.1A1.17,1.17,0,0,0,32,6.51a1.37,1.37,0,0,0,.28-.14l.2-.14a.29.29,0,0,1,.19-.07.23.23,0,0,1,.2.1l.32.41a2,2,0,0,1-.4.36,2.14,2.14,0,0,1-.45.23,2.28,2.28,0,0,1-.48.12,3.34,3.34,0,0,1-.49,0,2,2,0,0,1-.81-.16,1.87,1.87,0,0,1-.66-.47A2.24,2.24,0,0,1,29.49,6a2.89,2.89,0,0,1-.16-1,2.93,2.93,0,0,1,.15-.94,2.15,2.15,0,0,1,.43-.75,2,2,0,0,1,.7-.5,2.42,2.42,0,0,1,1-.18,2.28,2.28,0,0,1,.91.17,2.22,2.22,0,0,1,.7.48Z"/><path class="a" d="M35.83,2.67a2.25,2.25,0,0,1,.8.14,1.78,1.78,0,0,1,.63.41,1.86,1.86,0,0,1,.41.66,2.49,2.49,0,0,1,.15.89,1.73,1.73,0,0,1,0,.21.34.34,0,0,1,0,.13.17.17,0,0,1-.08.07l-.13,0H34.72a1.59,1.59,0,0,0,.38,1,1.2,1.2,0,0,0,.88.33,1.49,1.49,0,0,0,.46-.06,2.21,2.21,0,0,0,.34-.14l.26-.14a.43.43,0,0,1,.21-.06.24.24,0,0,1,.12,0,.25.25,0,0,1,.09.08l.32.41a1.88,1.88,0,0,1-.41.36,2.32,2.32,0,0,1-.48.23,2.65,2.65,0,0,1-.51.12,3.57,3.57,0,0,1-.5,0A2.46,2.46,0,0,1,35,7.27a2,2,0,0,1-.72-.47A2.22,2.22,0,0,1,33.79,6,3,3,0,0,1,33.62,5a2.56,2.56,0,0,1,.15-.89,2.12,2.12,0,0,1,.44-.72,2,2,0,0,1,.7-.49A2.29,2.29,0,0,1,35.83,2.67Zm0,.8a1,1,0,0,0-.76.27,1.35,1.35,0,0,0-.35.78h2.09a1.39,1.39,0,0,0-.06-.41,1,1,0,0,0-.18-.33.86.86,0,0,0-.31-.23A1.05,1.05,0,0,0,35.86,3.46Z"/><path class="a" d="M44.09,7.36h-.5a.54.54,0,0,1-.25,0,.3.3,0,0,1-.13-.19l-.1-.33a4,4,0,0,1-.34.28,2.13,2.13,0,0,1-.35.2,1.73,1.73,0,0,1-.38.12,2.26,2.26,0,0,1-.45,0A1.76,1.76,0,0,1,41,7.35a1.16,1.16,0,0,1-.42-.24,1.08,1.08,0,0,1-.28-.39,1.39,1.39,0,0,1-.1-.55,1.08,1.08,0,0,1,.14-.52,1.28,1.28,0,0,1,.46-.46,2.91,2.91,0,0,1,.85-.34A5.45,5.45,0,0,1,43,4.72V4.45a1,1,0,0,0-.2-.69.72.72,0,0,0-.57-.22,1.37,1.37,0,0,0-.45.06,1.7,1.7,0,0,0-.31.14l-.25.14a.5.5,0,0,1-.25.06.32.32,0,0,1-.19-.06.45.45,0,0,1-.13-.14l-.2-.36a2.74,2.74,0,0,1,1.92-.73,1.85,1.85,0,0,1,.72.13,1.53,1.53,0,0,1,.54.37,1.61,1.61,0,0,1,.33.57,2.15,2.15,0,0,1,.11.72Zm-2.16-.69a1.52,1.52,0,0,0,.32,0,1.22,1.22,0,0,0,.27-.09,1.44,1.44,0,0,0,.25-.15A2.24,2.24,0,0,0,43,6.17V5.4a4.5,4.5,0,0,0-.81.06,2.14,2.14,0,0,0-.52.16.66.66,0,0,0-.28.22.55.55,0,0,0,.09.7A.74.74,0,0,0,41.93,6.66Z"/><path class="a" d="M45.18,7.36V2.74h.68a.27.27,0,0,1,.28.2l.08.36A2.54,2.54,0,0,1,46.52,3a2.07,2.07,0,0,1,.33-.2,1.65,1.65,0,0,1,.37-.13,1.93,1.93,0,0,1,.43,0,1.65,1.65,0,0,1,.67.13,1.32,1.32,0,0,1,.49.36,1.59,1.59,0,0,1,.3.55,2.36,2.36,0,0,1,.1.71V7.36H48.1V4.42a1,1,0,0,0-.2-.65.72.72,0,0,0-.59-.23,1.16,1.16,0,0,0-.54.13,1.93,1.93,0,0,0-.48.36V7.36Z"/><path class="a" d="M53.55,7.36a.27.27,0,0,1-.28-.2l-.09-.45a2.73,2.73,0,0,1-.3.29,1.91,1.91,0,0,1-.34.22,1.73,1.73,0,0,1-.39.15,1.88,1.88,0,0,1-.45.05A1.54,1.54,0,0,1,51,7.27a1.56,1.56,0,0,1-.54-.46,2.2,2.2,0,0,1-.35-.74,3.71,3.71,0,0,1-.12-1,3.13,3.13,0,0,1,.14-1,2.3,2.3,0,0,1,.4-.76,1.86,1.86,0,0,1,.63-.51A1.81,1.81,0,0,1,52,2.66a1.61,1.61,0,0,1,.66.12,1.73,1.73,0,0,1,.49.33V.67h1.11V7.36Zm-1.48-.81a1.13,1.13,0,0,0,.59-.14A1.74,1.74,0,0,0,53.12,6V3.92a1.08,1.08,0,0,0-.41-.32,1.2,1.2,0,0,0-.48-.09,1.07,1.07,0,0,0-.46.09.88.88,0,0,0-.35.29,1.38,1.38,0,0,0-.22.49,2.8,2.8,0,0,0-.08.7,3.13,3.13,0,0,0,.06.69,1.35,1.35,0,0,0,.19.46.7.7,0,0,0,.3.26A.94.94,0,0,0,52.07,6.54Z"/><path class="a" d="M61.33.85v1H58.45v1.8h2.27v.93H58.45V6.39h2.88v1h-4.1V.85Z"/><path class="a" d="M62.32,7.36V2.74H63a.27.27,0,0,1,.28.2l.08.36A2.46,2.46,0,0,1,63.65,3a2.11,2.11,0,0,1,.33-.2,1.65,1.65,0,0,1,.37-.13,1.93,1.93,0,0,1,.43,0,1.65,1.65,0,0,1,.67.13,1.32,1.32,0,0,1,.49.36,1.59,1.59,0,0,1,.3.55,2.36,2.36,0,0,1,.1.71V7.36H65.23V4.42a1,1,0,0,0-.2-.65.72.72,0,0,0-.59-.23,1.16,1.16,0,0,0-.54.13,1.93,1.93,0,0,0-.48.36V7.36Z"/><path class="a" d="M69,7.43A1.21,1.21,0,0,1,68,7.09a1.3,1.3,0,0,1-.32-.94V3.57h-.47A.21.21,0,0,1,67,3.34V2.9l.74-.12L68,1.52a.22.22,0,0,1,.08-.14.26.26,0,0,1,.16,0h.58V2.78H70v.79H68.82v2.5a.49.49,0,0,0,.11.34.36.36,0,0,0,.29.12.52.52,0,0,0,.17,0l.12-.05.09-.05.08,0,.08,0,.07.07.33.54a1.68,1.68,0,0,1-.56.31A2.09,2.09,0,0,1,69,7.43Z"/><path class="a" d="M70.92,7.36V2.74h.65a.35.35,0,0,1,.24.06A.36.36,0,0,1,71.9,3l.07.56a2.2,2.2,0,0,1,.58-.67,1.22,1.22,0,0,1,.75-.25,1,1,0,0,1,.57.16l-.14.83a.17.17,0,0,1-.06.12.2.2,0,0,1-.12,0l-.18,0a1.26,1.26,0,0,0-.31,0,.94.94,0,0,0-.59.19,1.48,1.48,0,0,0-.42.56V7.36Z"/><path class="a" d="M76.5,2.67a2.25,2.25,0,0,1,.8.14,1.78,1.78,0,0,1,.63.41,1.86,1.86,0,0,1,.41.66,2.49,2.49,0,0,1,.15.89,1.53,1.53,0,0,1,0,.21.32.32,0,0,1,0,.13.17.17,0,0,1-.08.07l-.13,0H75.39a1.59,1.59,0,0,0,.38,1,1.19,1.19,0,0,0,.88.33,1.5,1.5,0,0,0,.47-.06,2.24,2.24,0,0,0,.34-.14l.26-.14a.43.43,0,0,1,.21-.06.24.24,0,0,1,.12,0,.25.25,0,0,1,.09.08l.32.41A1.88,1.88,0,0,1,78,7a2.34,2.34,0,0,1-.48.23,2.65,2.65,0,0,1-.51.12,3.58,3.58,0,0,1-.5,0,2.47,2.47,0,0,1-.9-.16,2,2,0,0,1-.72-.47A2.22,2.22,0,0,1,74.46,6,3,3,0,0,1,74.29,5a2.56,2.56,0,0,1,.15-.89,2.13,2.13,0,0,1,.44-.72,2.06,2.06,0,0,1,.7-.49A2.3,2.3,0,0,1,76.5,2.67Zm0,.8a1,1,0,0,0-.76.27,1.36,1.36,0,0,0-.35.78H77.5a1.39,1.39,0,0,0-.06-.41.94.94,0,0,0-.18-.33A.86.86,0,0,0,77,3.55,1.05,1.05,0,0,0,76.53,3.46Z"/><path class="a" d="M79.41,8.87V2.74h.68a.33.33,0,0,1,.18,0,.23.23,0,0,1,.1.15l.09.43a2.34,2.34,0,0,1,.64-.52,1.74,1.74,0,0,1,.85-.2,1.5,1.5,0,0,1,.69.16,1.53,1.53,0,0,1,.54.46,2.18,2.18,0,0,1,.35.74,3.7,3.7,0,0,1,.12,1,3.14,3.14,0,0,1-.14,1,2.35,2.35,0,0,1-.4.76,1.84,1.84,0,0,1-.63.51,1.81,1.81,0,0,1-.82.18A1.66,1.66,0,0,1,81,7.31,1.61,1.61,0,0,1,80.52,7V8.87Zm2.16-5.33a1.14,1.14,0,0,0-.59.15,1.72,1.72,0,0,0-.46.41V6.16a1.06,1.06,0,0,0,.41.33,1.24,1.24,0,0,0,.48.09,1.07,1.07,0,0,0,.46-.09.88.88,0,0,0,.35-.29,1.42,1.42,0,0,0,.22-.49,2.8,2.8,0,0,0,.08-.7,3.06,3.06,0,0,0-.07-.69,1.32,1.32,0,0,0-.19-.46A.73.73,0,0,0,82,3.61.92.92,0,0,0,81.57,3.53Z"/><path class="a" d="M84.5,7.36V2.74h.65a.35.35,0,0,1,.24.06.36.36,0,0,1,.09.22l.07.56a2.2,2.2,0,0,1,.58-.67,1.22,1.22,0,0,1,.75-.25,1,1,0,0,1,.57.16l-.14.83a.17.17,0,0,1-.06.12.2.2,0,0,1-.12,0l-.18,0a1.26,1.26,0,0,0-.31,0,.94.94,0,0,0-.59.19,1.48,1.48,0,0,0-.42.56V7.36Z"/><path class="a" d="M90.08,2.67a2.25,2.25,0,0,1,.8.14,1.78,1.78,0,0,1,.63.41,1.86,1.86,0,0,1,.41.66,2.49,2.49,0,0,1,.15.89,1.53,1.53,0,0,1,0,.21.32.32,0,0,1,0,.13.17.17,0,0,1-.08.07l-.13,0H89a1.59,1.59,0,0,0,.38,1,1.19,1.19,0,0,0,.88.33,1.5,1.5,0,0,0,.47-.06A2.24,2.24,0,0,0,91,6.36l.26-.14a.43.43,0,0,1,.21-.06.24.24,0,0,1,.12,0,.25.25,0,0,1,.09.08l.32.41a1.88,1.88,0,0,1-.41.36,2.34,2.34,0,0,1-.48.23,2.65,2.65,0,0,1-.51.12,3.58,3.58,0,0,1-.5,0,2.47,2.47,0,0,1-.9-.16,2,2,0,0,1-.72-.47A2.22,2.22,0,0,1,88,6,3,3,0,0,1,87.86,5,2.56,2.56,0,0,1,88,4.06a2.13,2.13,0,0,1,.44-.72,2.06,2.06,0,0,1,.7-.49A2.3,2.3,0,0,1,90.08,2.67Zm0,.8a1,1,0,0,0-.76.27,1.36,1.36,0,0,0-.35.78h2.09A1.39,1.39,0,0,0,91,4.11a.94.94,0,0,0-.18-.33.86.86,0,0,0-.31-.23A1.05,1.05,0,0,0,90.1,3.46Z"/><path class="a" d="M93,7.36V2.74h.68a.27.27,0,0,1,.28.2l.08.36A2.46,2.46,0,0,1,94.32,3a2.11,2.11,0,0,1,.33-.2A1.65,1.65,0,0,1,95,2.71a1.93,1.93,0,0,1,.43,0,1.65,1.65,0,0,1,.67.13,1.32,1.32,0,0,1,.49.36,1.59,1.59,0,0,1,.3.55,2.36,2.36,0,0,1,.1.71V7.36H95.9V4.42a1,1,0,0,0-.2-.65.72.72,0,0,0-.59-.23,1.16,1.16,0,0,0-.54.13,1.93,1.93,0,0,0-.48.36V7.36Z"/><path class="a" d="M100,2.67a2.25,2.25,0,0,1,.8.14,1.78,1.78,0,0,1,.63.41,1.86,1.86,0,0,1,.41.66,2.49,2.49,0,0,1,.15.89A1.53,1.53,0,0,1,102,5a.32.32,0,0,1,0,.13.17.17,0,0,1-.08.07l-.13,0H98.9a1.59,1.59,0,0,0,.38,1,1.19,1.19,0,0,0,.88.33,1.5,1.5,0,0,0,.47-.06,2.24,2.24,0,0,0,.34-.14l.26-.14a.43.43,0,0,1,.21-.06.24.24,0,0,1,.12,0,.25.25,0,0,1,.09.08l.32.41a1.88,1.88,0,0,1-.41.36,2.34,2.34,0,0,1-.48.23,2.65,2.65,0,0,1-.51.12,3.58,3.58,0,0,1-.5,0,2.47,2.47,0,0,1-.9-.16,2,2,0,0,1-.72-.47A2.22,2.22,0,0,1,98,6,3,3,0,0,1,97.79,5a2.56,2.56,0,0,1,.15-.89,2.13,2.13,0,0,1,.44-.72,2.06,2.06,0,0,1,.7-.49A2.3,2.3,0,0,1,100,2.67Zm0,.8a1,1,0,0,0-.76.27,1.36,1.36,0,0,0-.35.78H101a1.39,1.39,0,0,0-.06-.41.94.94,0,0,0-.18-.33.86.86,0,0,0-.31-.23A1.05,1.05,0,0,0,100,3.46Z"/><path class="a" d="M103.93,2.74V5.67a1,1,0,0,0,.2.65.73.73,0,0,0,.59.23,1.17,1.17,0,0,0,.54-.13,1.88,1.88,0,0,0,.48-.35V2.74h1.11V7.36h-.68a.27.27,0,0,1-.28-.2l-.08-.37a3.22,3.22,0,0,1-.3.26,1.73,1.73,0,0,1-.33.2,1.79,1.79,0,0,1-.37.13,1.83,1.83,0,0,1-.43,0,1.63,1.63,0,0,1-.67-.13,1.32,1.32,0,0,1-.49-.36,1.56,1.56,0,0,1-.3-.56,2.35,2.35,0,0,1-.1-.71V2.74Z"/><path class="a" d="M108,7.36V2.74h.65a.35.35,0,0,1,.24.06A.36.36,0,0,1,109,3l.07.56a2.2,2.2,0,0,1,.58-.67,1.22,1.22,0,0,1,.75-.25,1,1,0,0,1,.57.16l-.14.83a.17.17,0,0,1-.06.12.2.2,0,0,1-.12,0l-.18,0a1.26,1.26,0,0,0-.31,0,.94.94,0,0,0-.59.19,1.48,1.48,0,0,0-.42.56V7.36Z"/><path class="a" d="M113.05,1.39a.63.63,0,0,1-.06.27.73.73,0,0,1-.38.37.7.7,0,0,1-.28.06.67.67,0,0,1-.27-.06.73.73,0,0,1-.22-.15.76.76,0,0,1-.15-.22.66.66,0,0,1-.06-.27.7.7,0,0,1,.06-.28.74.74,0,0,1,.15-.23.73.73,0,0,1,.22-.15.67.67,0,0,1,.27-.06.7.7,0,0,1,.28.06.74.74,0,0,1,.23.15.74.74,0,0,1,.16.23A.67.67,0,0,1,113.05,1.39Zm-.17,1.35V7.36h-1.11V2.74Z"/><path class="a" d="M117.76,7.36h-.5a.54.54,0,0,1-.25,0,.31.31,0,0,1-.13-.19l-.1-.33a3.9,3.9,0,0,1-.34.28,2.08,2.08,0,0,1-.35.2,1.77,1.77,0,0,1-.38.12,2.27,2.27,0,0,1-.45,0,1.77,1.77,0,0,1-.54-.08,1.16,1.16,0,0,1-.42-.24,1.08,1.08,0,0,1-.28-.39,1.39,1.39,0,0,1-.1-.55,1.08,1.08,0,0,1,.14-.52,1.28,1.28,0,0,1,.46-.46,2.91,2.91,0,0,1,.85-.34,5.47,5.47,0,0,1,1.32-.13V4.45a1,1,0,0,0-.2-.69.72.72,0,0,0-.57-.22,1.38,1.38,0,0,0-.45.06,1.73,1.73,0,0,0-.31.14l-.25.14a.5.5,0,0,1-.25.06.32.32,0,0,1-.19-.06.46.46,0,0,1-.13-.14l-.2-.36a2.74,2.74,0,0,1,1.92-.73,1.85,1.85,0,0,1,.72.13,1.53,1.53,0,0,1,.54.37,1.59,1.59,0,0,1,.34.57,2.18,2.18,0,0,1,.11.72Zm-2.16-.69a1.52,1.52,0,0,0,.32,0,1.23,1.23,0,0,0,.27-.09,1.43,1.43,0,0,0,.25-.15,2.25,2.25,0,0,0,.24-.21V5.4a4.5,4.5,0,0,0-.81.06,2.15,2.15,0,0,0-.52.16.67.67,0,0,0-.28.22.56.56,0,0,0,.09.7A.74.74,0,0,0,115.6,6.66Z"/><path class="a" d="M120,.67V7.36h-1.11V.67Z"/><path class="a" d="M7.26,18.16H6.33a.4.4,0,0,1-.26-.08.43.43,0,0,1-.15-.2l-.49-1.33H2.74l-.49,1.33a.41.41,0,0,1-.14.19.4.4,0,0,1-.26.09H.92l2.56-6.51H4.71ZM3.05,15.7H5.13l-.79-2.16-.12-.34c0-.13-.09-.27-.13-.43L4,13.2c0,.13-.08.25-.12.35Z"/><path class="a" d="M11.12,14.52l-.1.1a.22.22,0,0,1-.14,0,.3.3,0,0,1-.17-.05l-.19-.12a1.44,1.44,0,0,0-.27-.12,1.21,1.21,0,0,0-.38-.05,1.18,1.18,0,0,0-.51.11,1,1,0,0,0-.37.3,1.36,1.36,0,0,0-.22.48,2.58,2.58,0,0,0-.07.64,2.49,2.49,0,0,0,.08.66A1.42,1.42,0,0,0,9,17a1,1,0,0,0,.36.3,1.09,1.09,0,0,0,.48.1,1.17,1.17,0,0,0,.43-.07,1.37,1.37,0,0,0,.28-.14l.2-.14a.29.29,0,0,1,.19-.07.23.23,0,0,1,.2.1l.32.41a2,2,0,0,1-.4.36,2.14,2.14,0,0,1-.45.23,2.28,2.28,0,0,1-.48.12,3.34,3.34,0,0,1-.49,0,2,2,0,0,1-.81-.16,1.87,1.87,0,0,1-.66-.47,2.24,2.24,0,0,1-.45-.75,2.89,2.89,0,0,1-.16-1,2.93,2.93,0,0,1,.15-.94,2.15,2.15,0,0,1,.43-.75,2,2,0,0,1,.7-.5,2.42,2.42,0,0,1,1-.18,2.28,2.28,0,0,1,.91.17,2.22,2.22,0,0,1,.7.48Z"/><path class="a" d="M13.68,18.23a1.21,1.21,0,0,1-.92-.34,1.3,1.3,0,0,1-.32-.94V14.37H12a.21.21,0,0,1-.22-.23V13.7l.74-.12.23-1.26a.23.23,0,0,1,.08-.14.26.26,0,0,1,.16,0h.58v1.45h1.21v.79H13.55v2.5a.49.49,0,0,0,.11.34.37.37,0,0,0,.29.12.52.52,0,0,0,.17,0l.12-.05.09-.05.08,0,.08,0,.07.07.33.54a1.67,1.67,0,0,1-.56.31A2.1,2.1,0,0,1,13.68,18.23Z"/><path class="a" d="M17,12.2a.63.63,0,0,1-.06.27.72.72,0,0,1-.38.37.7.7,0,0,1-.28.06.68.68,0,0,1-.27-.06.71.71,0,0,1-.22-.15.74.74,0,0,1-.15-.22.65.65,0,0,1-.06-.27.69.69,0,0,1,.06-.28.72.72,0,0,1,.15-.23.71.71,0,0,1,.22-.15.68.68,0,0,1,.27-.06.7.7,0,0,1,.28.06.75.75,0,0,1,.23.15.73.73,0,0,1,.15.23A.67.67,0,0,1,17,12.2Zm-.17,1.35v4.62H15.72V13.54Z"/><path class="a" d="M20.4,18.16h-1l-1.84-4.62h.92a.35.35,0,0,1,.21.06.31.31,0,0,1,.12.15l.89,2.47c.05.14.09.29.13.42s.07.28.09.41c0-.14.06-.28.09-.41a3.74,3.74,0,0,1,.13-.42L21,13.75a.3.3,0,0,1,.11-.15.32.32,0,0,1,.19-.06h.88Z"/><path class="a" d="M24.24,12.2a.63.63,0,0,1-.06.27.72.72,0,0,1-.38.37.7.7,0,0,1-.28.06.68.68,0,0,1-.27-.06.71.71,0,0,1-.22-.15.74.74,0,0,1-.15-.22.65.65,0,0,1-.06-.27.69.69,0,0,1,.06-.28.72.72,0,0,1,.15-.23.71.71,0,0,1,.22-.15.68.68,0,0,1,.27-.06.7.7,0,0,1,.28.06.75.75,0,0,1,.23.15.73.73,0,0,1,.15.23A.67.67,0,0,1,24.24,12.2Zm-.17,1.35v4.62H23V13.54Z"/><path class="a" d="M26.84,18.23a1.21,1.21,0,0,1-.92-.34A1.3,1.3,0,0,1,25.6,17V14.37h-.47a.21.21,0,0,1-.22-.23V13.7l.74-.12.23-1.26a.23.23,0,0,1,.08-.14.26.26,0,0,1,.16,0h.58v1.45h1.21v.79H26.71v2.5a.49.49,0,0,0,.11.34.37.37,0,0,0,.29.12.52.52,0,0,0,.17,0l.12-.05.09-.05.08,0,.08,0,.07.07.33.54a1.67,1.67,0,0,1-.56.31A2.1,2.1,0,0,1,26.84,18.23Z"/><path class="a" d="M30.16,12.2a.63.63,0,0,1-.06.27.72.72,0,0,1-.38.37.7.7,0,0,1-.28.06.68.68,0,0,1-.27-.06.71.71,0,0,1-.22-.15.74.74,0,0,1-.15-.22.65.65,0,0,1-.06-.27.69.69,0,0,1,.06-.28.72.72,0,0,1,.15-.23.71.71,0,0,1,.22-.15.68.68,0,0,1,.27-.06.7.7,0,0,1,.28.06.75.75,0,0,1,.23.15.73.73,0,0,1,.15.23A.67.67,0,0,1,30.16,12.2ZM30,13.54v4.62H28.88V13.54Z"/><path class="a" d="M33.16,13.47a2.25,2.25,0,0,1,.8.14,1.78,1.78,0,0,1,.63.41,1.86,1.86,0,0,1,.41.66,2.49,2.49,0,0,1,.15.89,1.73,1.73,0,0,1,0,.21.34.34,0,0,1,0,.13A.17.17,0,0,1,35,16l-.13,0H32a1.59,1.59,0,0,0,.38,1,1.2,1.2,0,0,0,.88.33,1.49,1.49,0,0,0,.46-.06,2.21,2.21,0,0,0,.34-.14l.26-.14a.43.43,0,0,1,.21-.06.24.24,0,0,1,.12,0,.25.25,0,0,1,.09.08l.32.41a1.88,1.88,0,0,1-.41.36,2.32,2.32,0,0,1-.48.23,2.65,2.65,0,0,1-.51.12,3.57,3.57,0,0,1-.5,0,2.46,2.46,0,0,1-.89-.16,2,2,0,0,1-.72-.47,2.22,2.22,0,0,1-.48-.77,3,3,0,0,1-.17-1.07,2.56,2.56,0,0,1,.15-.89,2.12,2.12,0,0,1,.44-.72,2,2,0,0,1,.7-.49A2.29,2.29,0,0,1,33.16,13.47Zm0,.8a1,1,0,0,0-.76.27,1.35,1.35,0,0,0-.35.78h2.09a1.39,1.39,0,0,0-.06-.41,1,1,0,0,0-.18-.33.86.86,0,0,0-.31-.23A1.05,1.05,0,0,0,33.18,14.27Z"/><path class="a" d="M38.8,14.44a.3.3,0,0,1-.09.1.25.25,0,0,1-.13,0,.4.4,0,0,1-.17,0l-.21-.1-.28-.1a1.32,1.32,0,0,0-.37,0,.86.86,0,0,0-.52.14.43.43,0,0,0-.19.36.35.35,0,0,0,.1.25.87.87,0,0,0,.26.18,2.49,2.49,0,0,0,.36.14l.41.13.41.16a1.42,1.42,0,0,1,.36.23,1,1,0,0,1,.35.82,1.53,1.53,0,0,1-.12.61,1.35,1.35,0,0,1-.36.49,1.67,1.67,0,0,1-.58.32,2.48,2.48,0,0,1-.79.12,2.53,2.53,0,0,1-.47,0,2.76,2.76,0,0,1-.44-.12,2.43,2.43,0,0,1-.39-.18,1.91,1.91,0,0,1-.31-.23l.26-.42a.37.37,0,0,1,.12-.12.34.34,0,0,1,.17,0,.36.36,0,0,1,.2.06l.21.13.29.13a1.25,1.25,0,0,0,.42.06,1.08,1.08,0,0,0,.34,0,.7.7,0,0,0,.23-.12A.46.46,0,0,0,38,17.1a.53.53,0,0,0,0-.21.37.37,0,0,0-.1-.27.85.85,0,0,0-.26-.18,2.59,2.59,0,0,0-.36-.14l-.42-.13L36.51,16a1.45,1.45,0,0,1-.37-.25,1.13,1.13,0,0,1-.26-.37,1.27,1.27,0,0,1-.1-.52,1.32,1.32,0,0,1,.11-.54,1.27,1.27,0,0,1,.33-.45,1.67,1.67,0,0,1,.54-.31,2.28,2.28,0,0,1,.75-.12,2.3,2.3,0,0,1,.87.16,2,2,0,0,1,.65.41Z"/><path class="a" d="M43.08,12.2a.63.63,0,0,1-.06.27.73.73,0,0,1-.38.37.7.7,0,0,1-.28.06.67.67,0,0,1-.27-.06.71.71,0,0,1-.22-.15.74.74,0,0,1-.15-.22.65.65,0,0,1-.06-.27.68.68,0,0,1,.06-.28.73.73,0,0,1,.15-.23.71.71,0,0,1,.22-.15.67.67,0,0,1,.27-.06.7.7,0,0,1,.28.06.76.76,0,0,1,.23.15.74.74,0,0,1,.16.23A.67.67,0,0,1,43.08,12.2Zm-.17,1.35v4.62H41.8V13.54Z"/><path class="a" d="M44.17,18.16V13.54h.68a.27.27,0,0,1,.28.2l.08.36a2.46,2.46,0,0,1,.29-.26,2.07,2.07,0,0,1,.33-.2,1.64,1.64,0,0,1,.37-.13,1.92,1.92,0,0,1,.43,0,1.64,1.64,0,0,1,.67.13,1.31,1.31,0,0,1,.49.36,1.57,1.57,0,0,1,.3.55,2.33,2.33,0,0,1,.1.71v2.94H47.08V15.22a1,1,0,0,0-.2-.65.72.72,0,0,0-.59-.23,1.16,1.16,0,0,0-.54.13,1.92,1.92,0,0,0-.48.36v3.34Z"/><path class="a" d="M56.58,18.16H55.36V15.31H52.3v2.84H51.09V11.65H52.3v2.8h3.05v-2.8h1.22Z"/><path class="a" d="M59.18,12.2a.65.65,0,0,1-.06.27.73.73,0,0,1-.38.37.7.7,0,0,1-.28.06.68.68,0,0,1-.27-.06.71.71,0,0,1-.37-.37.66.66,0,0,1-.06-.27.7.7,0,0,1,.06-.28.72.72,0,0,1,.15-.23.73.73,0,0,1,.22-.15.68.68,0,0,1,.27-.06.7.7,0,0,1,.28.06.74.74,0,0,1,.23.15.74.74,0,0,1,.16.23A.69.69,0,0,1,59.18,12.2ZM59,13.54v4.62H57.9V13.54Z"/><path class="a" d="M61.86,13.46a2.48,2.48,0,0,1,.56.06,2,2,0,0,1,.48.18h1.33v.41a.23.23,0,0,1-.05.16.32.32,0,0,1-.19.08l-.41.08a1.25,1.25,0,0,1,.07.25,1.55,1.55,0,0,1,0,.27A1.37,1.37,0,0,1,63.15,16a1.75,1.75,0,0,1-.57.3,2.34,2.34,0,0,1-.72.11,2.58,2.58,0,0,1-.51,0,.37.37,0,0,0-.22.29.22.22,0,0,0,.13.21,1,1,0,0,0,.34.09,3.67,3.67,0,0,0,.48,0l.54,0a4.52,4.52,0,0,1,.54.08,1.6,1.6,0,0,1,.47.18,1,1,0,0,1,.34.33,1,1,0,0,1,.13.54,1.26,1.26,0,0,1-.15.6,1.59,1.59,0,0,1-.44.51,2.32,2.32,0,0,1-.7.36,3,3,0,0,1-.95.14,3.65,3.65,0,0,1-.91-.1,2.1,2.1,0,0,1-.64-.27,1.17,1.17,0,0,1-.38-.39.91.91,0,0,1-.13-.46A.78.78,0,0,1,60,18a1.36,1.36,0,0,1,.55-.35.77.77,0,0,1-.27-.25.73.73,0,0,1-.1-.41.68.68,0,0,1,0-.21.86.86,0,0,1,.11-.22,1.11,1.11,0,0,1,.19-.21,1.25,1.25,0,0,1,.27-.17,1.46,1.46,0,0,1-.55-.5A1.34,1.34,0,0,1,60,15a1.35,1.35,0,0,1,.52-1.09,1.75,1.75,0,0,1,.58-.3A2.49,2.49,0,0,1,61.86,13.46Zm1.22,4.89a.32.32,0,0,0-.08-.23.54.54,0,0,0-.22-.14,1.64,1.64,0,0,0-.33-.07l-.4,0h-.43a1.83,1.83,0,0,1-.43,0,1,1,0,0,0-.3.25.51.51,0,0,0-.11.33.44.44,0,0,0,.06.23.5.5,0,0,0,.19.18,1.17,1.17,0,0,0,.34.12,2.68,2.68,0,0,0,.52,0,2.58,2.58,0,0,0,.54,0,1.27,1.27,0,0,0,.37-.13.57.57,0,0,0,.21-.2A.5.5,0,0,0,63.08,18.35Zm-1.22-2.62a1,1,0,0,0,.36-.06.69.69,0,0,0,.25-.16.64.64,0,0,0,.15-.24.9.9,0,0,0,.05-.31.72.72,0,0,0-.21-.54,1,1,0,0,0-1.23,0A.73.73,0,0,0,61,15a.84.84,0,0,0,.05.3.66.66,0,0,0,.15.24.7.7,0,0,0,.26.16A1,1,0,0,0,61.86,15.74Z"/><path class="a" d="M64.92,18.16V11.47H66V14a2.36,2.36,0,0,1,.59-.41,1.71,1.71,0,0,1,.76-.16,1.65,1.65,0,0,1,.67.13,1.32,1.32,0,0,1,.49.36,1.59,1.59,0,0,1,.3.55,2.36,2.36,0,0,1,.1.71v2.94H67.83V15.22a1,1,0,0,0-.2-.65.72.72,0,0,0-.59-.23,1.16,1.16,0,0,0-.54.13,1.93,1.93,0,0,0-.48.36v3.34Z"/><path class="a" d="M71.95,13.47a2.25,2.25,0,0,1,.8.14,1.78,1.78,0,0,1,.63.41,1.86,1.86,0,0,1,.41.66,2.49,2.49,0,0,1,.15.89,1.53,1.53,0,0,1,0,.21.32.32,0,0,1,0,.13.17.17,0,0,1-.08.07l-.13,0H70.84a1.59,1.59,0,0,0,.38,1,1.19,1.19,0,0,0,.88.33,1.5,1.5,0,0,0,.47-.06,2.24,2.24,0,0,0,.34-.14l.26-.14a.43.43,0,0,1,.21-.06.24.24,0,0,1,.12,0,.25.25,0,0,1,.09.08l.32.41a1.88,1.88,0,0,1-.41.36,2.34,2.34,0,0,1-.48.23,2.65,2.65,0,0,1-.51.12,3.58,3.58,0,0,1-.5,0,2.47,2.47,0,0,1-.9-.16,2,2,0,0,1-.72-.47,2.22,2.22,0,0,1-.48-.77,3,3,0,0,1-.18-1.07,2.56,2.56,0,0,1,.15-.89,2.13,2.13,0,0,1,.44-.72,2.06,2.06,0,0,1,.7-.49A2.3,2.3,0,0,1,71.95,13.47Zm0,.8a1,1,0,0,0-.76.27,1.36,1.36,0,0,0-.35.78h2.09a1.39,1.39,0,0,0-.06-.41.94.94,0,0,0-.18-.33.86.86,0,0,0-.31-.23A1.05,1.05,0,0,0,72,14.27Z"/><path class="a" d="M74.85,18.16V13.54h.65a.35.35,0,0,1,.24.06.36.36,0,0,1,.09.22l.07.56a2.2,2.2,0,0,1,.58-.67,1.22,1.22,0,0,1,.75-.25,1,1,0,0,1,.57.16l-.14.83a.17.17,0,0,1-.06.12.2.2,0,0,1-.12,0l-.18,0a1.26,1.26,0,0,0-.31,0,.94.94,0,0,0-.59.19,1.48,1.48,0,0,0-.42.56v2.88Z"/><path class="a" d="M84.43,11.65v1H81.55v1.8h2.27v.93H81.55v1.84h2.88v1h-4.1V11.65Z"/><path class="a" d="M88.67,18.16a.27.27,0,0,1-.28-.2l-.09-.45a2.74,2.74,0,0,1-.3.29,1.88,1.88,0,0,1-.34.22,1.72,1.72,0,0,1-.39.15,1.9,1.9,0,0,1-.45.05,1.5,1.5,0,0,1-1.24-.61,2.18,2.18,0,0,1-.35-.74,3.72,3.72,0,0,1-.12-1,3.16,3.16,0,0,1,.14-1,2.32,2.32,0,0,1,.4-.76,1.87,1.87,0,0,1,.63-.51,1.81,1.81,0,0,1,.82-.18,1.62,1.62,0,0,1,.66.12,1.76,1.76,0,0,1,.49.33V11.47h1.11v6.69Zm-1.48-.81a1.13,1.13,0,0,0,.59-.14,1.75,1.75,0,0,0,.46-.41V14.72a1.09,1.09,0,0,0-.41-.32,1.2,1.2,0,0,0-.48-.09,1.07,1.07,0,0,0-.46.09.89.89,0,0,0-.35.29,1.42,1.42,0,0,0-.22.49,2.8,2.8,0,0,0-.08.7,3.06,3.06,0,0,0,.07.69,1.35,1.35,0,0,0,.19.46.71.71,0,0,0,.3.26A.94.94,0,0,0,87.18,17.34Z"/><path class="a" d="M91.56,13.54v2.93a1,1,0,0,0,.2.65.73.73,0,0,0,.59.23,1.17,1.17,0,0,0,.54-.13,1.88,1.88,0,0,0,.48-.35V13.54h1.11v4.62h-.68a.27.27,0,0,1-.28-.2l-.08-.37a3.22,3.22,0,0,1-.3.26,1.73,1.73,0,0,1-.33.2,1.79,1.79,0,0,1-.37.13,1.83,1.83,0,0,1-.43,0,1.63,1.63,0,0,1-.67-.13,1.32,1.32,0,0,1-.49-.36,1.56,1.56,0,0,1-.3-.56,2.35,2.35,0,0,1-.1-.71V13.54Z"/><path class="a" d="M98.91,14.52l-.1.1a.23.23,0,0,1-.14,0,.3.3,0,0,1-.17-.05l-.19-.12a1.37,1.37,0,0,0-.27-.12,1.21,1.21,0,0,0-.38-.05,1.17,1.17,0,0,0-.51.11,1,1,0,0,0-.37.3,1.36,1.36,0,0,0-.22.48,2.58,2.58,0,0,0-.07.64,2.49,2.49,0,0,0,.08.66,1.4,1.4,0,0,0,.23.48,1,1,0,0,0,.36.3,1.09,1.09,0,0,0,.48.1,1.18,1.18,0,0,0,.43-.07,1.37,1.37,0,0,0,.28-.14l.2-.14a.3.3,0,0,1,.19-.07.23.23,0,0,1,.2.1l.32.41a2,2,0,0,1-.4.36,2.15,2.15,0,0,1-.45.23,2.31,2.31,0,0,1-.48.12,3.35,3.35,0,0,1-.49,0,2,2,0,0,1-.81-.16A1.88,1.88,0,0,1,96,17.6a2.26,2.26,0,0,1-.45-.75,2.89,2.89,0,0,1-.16-1,2.93,2.93,0,0,1,.15-.94,2.15,2.15,0,0,1,.43-.75,2,2,0,0,1,.7-.5,2.42,2.42,0,0,1,1-.18,2.29,2.29,0,0,1,.91.17,2.23,2.23,0,0,1,.7.48Z"/><path class="a" d="M103.57,18.16h-.5a.54.54,0,0,1-.25,0,.31.31,0,0,1-.13-.19l-.1-.33a3.9,3.9,0,0,1-.34.28,2.08,2.08,0,0,1-.35.2,1.77,1.77,0,0,1-.38.12,2.27,2.27,0,0,1-.45,0,1.77,1.77,0,0,1-.54-.08,1.16,1.16,0,0,1-.42-.24,1.08,1.08,0,0,1-.28-.39,1.39,1.39,0,0,1-.1-.55,1.08,1.08,0,0,1,.14-.52,1.28,1.28,0,0,1,.46-.46,2.91,2.91,0,0,1,.85-.34,5.47,5.47,0,0,1,1.32-.13v-.27a1,1,0,0,0-.2-.69.72.72,0,0,0-.57-.22,1.38,1.38,0,0,0-.45.06,1.73,1.73,0,0,0-.31.14l-.25.14a.5.5,0,0,1-.25.06.32.32,0,0,1-.19-.06.46.46,0,0,1-.13-.14l-.2-.36a2.74,2.74,0,0,1,1.92-.73,1.85,1.85,0,0,1,.72.13,1.53,1.53,0,0,1,.54.37,1.59,1.59,0,0,1,.34.57,2.18,2.18,0,0,1,.11.72Zm-2.16-.69a1.52,1.52,0,0,0,.32,0,1.23,1.23,0,0,0,.27-.09,1.43,1.43,0,0,0,.25-.15,2.25,2.25,0,0,0,.24-.21V16.2a4.5,4.5,0,0,0-.81.06,2.15,2.15,0,0,0-.52.16.67.67,0,0,0-.28.22.56.56,0,0,0,.09.7A.74.74,0,0,0,101.41,17.46Z"/><path class="a" d="M106.18,18.23a1.21,1.21,0,0,1-.92-.34,1.3,1.3,0,0,1-.32-.94V14.37h-.47a.21.21,0,0,1-.22-.23V13.7l.74-.12.23-1.26a.22.22,0,0,1,.08-.14.26.26,0,0,1,.16,0H106v1.45h1.21v.79H106v2.5a.49.49,0,0,0,.11.34.36.36,0,0,0,.29.12.52.52,0,0,0,.17,0l.12-.05.09-.05.08,0,.08,0,.07.07.33.54a1.68,1.68,0,0,1-.56.31A2.09,2.09,0,0,1,106.18,18.23Z"/><path class="a" d="M109.5,12.2a.63.63,0,0,1-.06.27.73.73,0,0,1-.38.37.7.7,0,0,1-.28.06.67.67,0,0,1-.27-.06.73.73,0,0,1-.22-.15.76.76,0,0,1-.15-.22.66.66,0,0,1-.06-.27.7.7,0,0,1,.06-.28.74.74,0,0,1,.15-.23.73.73,0,0,1,.22-.15.67.67,0,0,1,.27-.06.7.7,0,0,1,.28.06.74.74,0,0,1,.23.15.74.74,0,0,1,.16.23A.67.67,0,0,1,109.5,12.2Zm-.17,1.35v4.62h-1.11V13.54Z"/><path class="a" d="M112.56,13.47a2.52,2.52,0,0,1,.94.17,2,2,0,0,1,.72.47,2.08,2.08,0,0,1,.46.75,3.09,3.09,0,0,1,0,2,2.12,2.12,0,0,1-.46.75,2,2,0,0,1-.72.48,2.74,2.74,0,0,1-1.88,0,2,2,0,0,1-.72-.48,2.15,2.15,0,0,1-.46-.75,3.06,3.06,0,0,1,0-2,2.11,2.11,0,0,1,.46-.75,2,2,0,0,1,.72-.47A2.54,2.54,0,0,1,112.56,13.47Zm0,3.9a1,1,0,0,0,.85-.39,1.94,1.94,0,0,0,.28-1.13,2,2,0,0,0-.28-1.14,1,1,0,0,0-.85-.39,1,1,0,0,0-.86.39,1.94,1.94,0,0,0-.28,1.14A1.93,1.93,0,0,0,111.7,17,1,1,0,0,0,112.56,17.37Z"/><path class="a" d="M115.71,18.16V13.54h.68a.27.27,0,0,1,.28.2l.08.36a2.46,2.46,0,0,1,.29-.26,2.11,2.11,0,0,1,.33-.2,1.65,1.65,0,0,1,.37-.13,1.93,1.93,0,0,1,.43,0,1.65,1.65,0,0,1,.67.13,1.32,1.32,0,0,1,.49.36,1.59,1.59,0,0,1,.3.55,2.36,2.36,0,0,1,.1.71v2.94h-1.11V15.22a1,1,0,0,0-.2-.65.72.72,0,0,0-.59-.23,1.16,1.16,0,0,0-.54.13,1.93,1.93,0,0,0-.48.36v3.34Z"/><path class="a" d="M120.74,14.34a.68.68,0,0,1,.05-.27.62.62,0,0,1,.14-.22.71.71,0,0,1,.22-.14.67.67,0,0,1,.27-.05.67.67,0,0,1,.63.41.68.68,0,0,1,.05.27.67.67,0,0,1-.05.27.68.68,0,0,1-.14.21.65.65,0,0,1-.22.14.7.7,0,0,1-.27.05.71.71,0,0,1-.27-.05.68.68,0,0,1-.22-.14.63.63,0,0,1-.14-.21A.67.67,0,0,1,120.74,14.34Zm0,3.21a.68.68,0,0,1,.05-.27.63.63,0,0,1,.14-.22.72.72,0,0,1,.22-.14.67.67,0,0,1,.27-.05.67.67,0,0,1,.27.05.68.68,0,0,1,.41.63.67.67,0,0,1-.2.48.65.65,0,0,1-.22.14.7.7,0,0,1-.27.05.71.71,0,0,1-.27-.05.68.68,0,0,1-.22-.14.62.62,0,0,1-.14-.21A.67.67,0,0,1,120.74,17.55Z"/><path class="a" d="M8,27.42a.22.22,0,0,1,.17.08l.48.52a2.62,2.62,0,0,1-1,.75A3.35,3.35,0,0,1,6.31,29,3.28,3.28,0,0,1,5,28.78a2.88,2.88,0,0,1-1-.69A3,3,0,0,1,3.39,27a3.93,3.93,0,0,1-.22-1.34,3.59,3.59,0,0,1,.24-1.34,3,3,0,0,1,1.74-1.74,3.64,3.64,0,0,1,1.36-.25,3.2,3.2,0,0,1,1.27.23,3,3,0,0,1,.93.61l-.4.56a.39.39,0,0,1-.09.09.26.26,0,0,1-.16,0,.35.35,0,0,1-.21-.08l-.28-.18a2.27,2.27,0,0,0-.42-.18,2.18,2.18,0,0,0-.65-.08,2.18,2.18,0,0,0-.84.16A1.89,1.89,0,0,0,5,24a2.11,2.11,0,0,0-.43.72,2.78,2.78,0,0,0-.15,1,2.85,2.85,0,0,0,.15,1A2.16,2.16,0,0,0,5,27.4a1.8,1.8,0,0,0,.63.45,1.93,1.93,0,0,0,.77.16,3.29,3.29,0,0,0,.45,0,1.83,1.83,0,0,0,.37-.08,1.63,1.63,0,0,0,.32-.15,2,2,0,0,0,.3-.23l.09-.07Z"/><path class="a" d="M9.52,29V22.27h1.11v2.57a2.34,2.34,0,0,1,.59-.41,1.72,1.72,0,0,1,.76-.16,1.65,1.65,0,0,1,.67.13,1.33,1.33,0,0,1,.49.36,1.62,1.62,0,0,1,.3.55,2.39,2.39,0,0,1,.1.71V29H12.43V26a1,1,0,0,0-.2-.65.72.72,0,0,0-.59-.23,1.16,1.16,0,0,0-.54.13,1.93,1.93,0,0,0-.48.36V29Z"/><path class="a" d="M18.25,29h-.5a.54.54,0,0,1-.25,0,.31.31,0,0,1-.13-.19l-.1-.33a3.9,3.9,0,0,1-.34.28,2.12,2.12,0,0,1-.35.2,1.77,1.77,0,0,1-.38.12,2.27,2.27,0,0,1-.45,0,1.78,1.78,0,0,1-.54-.08,1.17,1.17,0,0,1-.42-.24,1.08,1.08,0,0,1-.28-.39,1.39,1.39,0,0,1-.1-.55,1.08,1.08,0,0,1,.14-.52A1.28,1.28,0,0,1,15,26.8a2.91,2.91,0,0,1,.85-.34,5.45,5.45,0,0,1,1.32-.13V26a1,1,0,0,0-.2-.69.71.71,0,0,0-.57-.22,1.37,1.37,0,0,0-.45.06,1.71,1.71,0,0,0-.31.14l-.25.14a.5.5,0,0,1-.25.06.32.32,0,0,1-.19-.06.45.45,0,0,1-.13-.14l-.2-.36a2.74,2.74,0,0,1,1.92-.73,1.84,1.84,0,0,1,.72.13,1.54,1.54,0,0,1,.54.37,1.59,1.59,0,0,1,.33.57,2.15,2.15,0,0,1,.12.72Zm-2.16-.69a1.52,1.52,0,0,0,.32,0,1.23,1.23,0,0,0,.27-.09,1.43,1.43,0,0,0,.25-.15l.24-.21V27a4.49,4.49,0,0,0-.81.06,2.15,2.15,0,0,0-.52.16.67.67,0,0,0-.28.22.56.56,0,0,0,.09.7A.75.75,0,0,0,16.09,28.26Z"/><path class="a" d="M20.53,22.27V29H19.42V22.27Z"/><path class="a" d="M23,22.27V29H21.86V22.27Z"/><path class="a" d="M26.13,24.27a2.25,2.25,0,0,1,.8.14,1.77,1.77,0,0,1,.63.41,1.85,1.85,0,0,1,.41.66,2.47,2.47,0,0,1,.15.89,1.73,1.73,0,0,1,0,.21.32.32,0,0,1,0,.13.17.17,0,0,1-.08.07l-.13,0H25a1.59,1.59,0,0,0,.38,1,1.19,1.19,0,0,0,.88.33,1.5,1.5,0,0,0,.47-.06,2.2,2.2,0,0,0,.34-.14l.26-.14a.43.43,0,0,1,.21-.06.24.24,0,0,1,.12,0,.26.26,0,0,1,.09.08l.32.41a1.86,1.86,0,0,1-.41.36,2.32,2.32,0,0,1-.48.23,2.64,2.64,0,0,1-.51.12,3.58,3.58,0,0,1-.5,0,2.47,2.47,0,0,1-.9-.16,2,2,0,0,1-.72-.47,2.21,2.21,0,0,1-.48-.77,3,3,0,0,1-.17-1.07,2.54,2.54,0,0,1,.15-.89,2.13,2.13,0,0,1,.44-.72,2.06,2.06,0,0,1,.7-.49A2.29,2.29,0,0,1,26.13,24.27Zm0,.8a1,1,0,0,0-.76.27,1.36,1.36,0,0,0-.35.78h2.09a1.39,1.39,0,0,0-.06-.41,1,1,0,0,0-.18-.33.87.87,0,0,0-.31-.23A1.06,1.06,0,0,0,26.16,25.07Z"/><path class="a" d="M29,29V24.34h.68a.27.27,0,0,1,.28.2l.08.36a2.46,2.46,0,0,1,.29-.26,2.07,2.07,0,0,1,.33-.2,1.64,1.64,0,0,1,.37-.13,1.92,1.92,0,0,1,.43,0,1.64,1.64,0,0,1,.67.13,1.31,1.31,0,0,1,.49.36,1.57,1.57,0,0,1,.3.55,2.33,2.33,0,0,1,.1.71V29H31.95V26a1,1,0,0,0-.2-.65.72.72,0,0,0-.59-.23,1.16,1.16,0,0,0-.54.13,1.92,1.92,0,0,0-.48.36V29Z"/><path class="a" d="M35.75,24.26a2.49,2.49,0,0,1,.56.06,2,2,0,0,1,.48.18h1.33v.41a.23.23,0,0,1-.05.16.32.32,0,0,1-.18.08l-.41.08a1.31,1.31,0,0,1,.07.25A1.38,1.38,0,0,1,37,26.84a1.75,1.75,0,0,1-.57.3,2.35,2.35,0,0,1-.72.11,2.56,2.56,0,0,1-.51,0c-.14.09-.22.19-.22.29a.22.22,0,0,0,.13.21,1,1,0,0,0,.34.09,3.64,3.64,0,0,0,.48,0l.54,0a4.45,4.45,0,0,1,.54.08,1.6,1.6,0,0,1,.47.18.94.94,0,0,1,.34.33A1,1,0,0,1,38,29a1.27,1.27,0,0,1-.15.6,1.59,1.59,0,0,1-.44.51,2.31,2.31,0,0,1-.7.36,3,3,0,0,1-.95.14,3.65,3.65,0,0,1-.91-.1,2.11,2.11,0,0,1-.64-.27,1.17,1.17,0,0,1-.38-.39.91.91,0,0,1-.12-.46.79.79,0,0,1,.2-.54,1.37,1.37,0,0,1,.55-.35.77.77,0,0,1-.27-.25.73.73,0,0,1-.1-.41.71.71,0,0,1,0-.21.83.83,0,0,1,.11-.22,1.1,1.1,0,0,1,.19-.21,1.3,1.3,0,0,1,.27-.17,1.45,1.45,0,0,1-.55-.5,1.34,1.34,0,0,1-.2-.74,1.36,1.36,0,0,1,.52-1.09,1.73,1.73,0,0,1,.58-.3A2.48,2.48,0,0,1,35.75,24.26ZM37,29.15a.32.32,0,0,0-.08-.23.53.53,0,0,0-.22-.14,1.61,1.61,0,0,0-.33-.07l-.4,0h-.43a1.83,1.83,0,0,1-.43,0,1,1,0,0,0-.3.25.5.5,0,0,0-.11.33.44.44,0,0,0,.06.23.52.52,0,0,0,.19.18,1.17,1.17,0,0,0,.34.12,2.69,2.69,0,0,0,.52,0,2.58,2.58,0,0,0,.54,0,1.28,1.28,0,0,0,.37-.13.57.57,0,0,0,.21-.2A.5.5,0,0,0,37,29.15Zm-1.22-2.62a1,1,0,0,0,.36-.06.69.69,0,0,0,.25-.16.65.65,0,0,0,.15-.24.88.88,0,0,0,.05-.31.72.72,0,0,0-.21-.54,1,1,0,0,0-1.23,0,.73.73,0,0,0-.2.54.86.86,0,0,0,.05.3.67.67,0,0,0,.15.24.68.68,0,0,0,.26.16A1,1,0,0,0,35.75,26.54Z"/><path class="a" d="M40.72,24.27a2.25,2.25,0,0,1,.8.14,1.78,1.78,0,0,1,.63.41,1.86,1.86,0,0,1,.41.66,2.49,2.49,0,0,1,.15.89,1.73,1.73,0,0,1,0,.21.34.34,0,0,1,0,.13.17.17,0,0,1-.08.07l-.13,0H39.61a1.59,1.59,0,0,0,.38,1,1.2,1.2,0,0,0,.88.33,1.49,1.49,0,0,0,.46-.06,2.21,2.21,0,0,0,.34-.14l.26-.14a.43.43,0,0,1,.21-.06.24.24,0,0,1,.12,0,.25.25,0,0,1,.09.08l.32.41a1.88,1.88,0,0,1-.41.36,2.32,2.32,0,0,1-.48.23,2.65,2.65,0,0,1-.51.12,3.57,3.57,0,0,1-.5,0,2.46,2.46,0,0,1-.89-.16,2,2,0,0,1-.72-.47,2.22,2.22,0,0,1-.48-.77,3,3,0,0,1-.17-1.07,2.56,2.56,0,0,1,.15-.89,2.12,2.12,0,0,1,.44-.72,2,2,0,0,1,.7-.49A2.29,2.29,0,0,1,40.72,24.27Zm0,.8a1,1,0,0,0-.76.27,1.35,1.35,0,0,0-.35.78h2.09a1.39,1.39,0,0,0-.06-.41,1,1,0,0,0-.18-.33.86.86,0,0,0-.31-.23A1.05,1.05,0,0,0,40.74,25.07Z"/><path class="a" d="M46.36,25.24a.3.3,0,0,1-.09.1.25.25,0,0,1-.13,0,.4.4,0,0,1-.17,0l-.21-.1-.28-.1a1.32,1.32,0,0,0-.37,0,.86.86,0,0,0-.52.14.43.43,0,0,0-.19.36.35.35,0,0,0,.1.25.87.87,0,0,0,.26.18,2.49,2.49,0,0,0,.36.14l.41.13.41.16a1.42,1.42,0,0,1,.36.23,1,1,0,0,1,.35.82,1.53,1.53,0,0,1-.12.61,1.35,1.35,0,0,1-.36.49,1.67,1.67,0,0,1-.58.32,2.48,2.48,0,0,1-.79.12,2.53,2.53,0,0,1-.47,0,2.76,2.76,0,0,1-.44-.12,2.43,2.43,0,0,1-.39-.18,1.91,1.91,0,0,1-.31-.23l.26-.42a.37.37,0,0,1,.12-.12.34.34,0,0,1,.17,0,.36.36,0,0,1,.2.06l.21.13.29.13a1.25,1.25,0,0,0,.42.06,1.08,1.08,0,0,0,.34,0,.7.7,0,0,0,.23-.12.46.46,0,0,0,.13-.18.53.53,0,0,0,0-.21.37.37,0,0,0-.1-.27.85.85,0,0,0-.26-.18,2.59,2.59,0,0,0-.36-.14L44.49,27l-.42-.17a1.45,1.45,0,0,1-.37-.25,1.13,1.13,0,0,1-.26-.37,1.27,1.27,0,0,1-.1-.52,1.32,1.32,0,0,1,.11-.54,1.27,1.27,0,0,1,.33-.45,1.67,1.67,0,0,1,.54-.31,2.28,2.28,0,0,1,.75-.12,2.3,2.3,0,0,1,.87.16,2,2,0,0,1,.65.41Z"/><path class="a" d="M52.91,29h-.5a.54.54,0,0,1-.25,0,.31.31,0,0,1-.13-.19l-.1-.33a3.9,3.9,0,0,1-.34.28,2.12,2.12,0,0,1-.35.2,1.77,1.77,0,0,1-.38.12,2.27,2.27,0,0,1-.45,0,1.78,1.78,0,0,1-.54-.08,1.17,1.17,0,0,1-.42-.24,1.08,1.08,0,0,1-.28-.39,1.39,1.39,0,0,1-.1-.55,1.08,1.08,0,0,1,.14-.52,1.28,1.28,0,0,1,.46-.46,2.91,2.91,0,0,1,.85-.34,5.45,5.45,0,0,1,1.32-.13V26a1,1,0,0,0-.2-.69.71.71,0,0,0-.57-.22,1.37,1.37,0,0,0-.45.06,1.71,1.71,0,0,0-.31.14l-.25.14a.5.5,0,0,1-.25.06.32.32,0,0,1-.19-.06.45.45,0,0,1-.13-.14l-.2-.36a2.74,2.74,0,0,1,1.92-.73,1.84,1.84,0,0,1,.72.13,1.54,1.54,0,0,1,.54.37,1.59,1.59,0,0,1,.33.57,2.15,2.15,0,0,1,.12.72Zm-2.16-.69a1.52,1.52,0,0,0,.32,0,1.23,1.23,0,0,0,.27-.09,1.43,1.43,0,0,0,.25-.15l.24-.21V27a4.49,4.49,0,0,0-.81.06,2.15,2.15,0,0,0-.52.16.67.67,0,0,0-.28.22.56.56,0,0,0,.09.7A.75.75,0,0,0,50.75,28.26Z"/><path class="a" d="M54,29V24.34h.68a.27.27,0,0,1,.28.2l.08.36a2.54,2.54,0,0,1,.29-.26,2.11,2.11,0,0,1,.33-.2,1.67,1.67,0,0,1,.37-.13,1.94,1.94,0,0,1,.43,0,1.65,1.65,0,0,1,.67.13,1.33,1.33,0,0,1,.49.36,1.62,1.62,0,0,1,.3.55A2.39,2.39,0,0,1,58,26V29H56.91V26a1,1,0,0,0-.2-.65.72.72,0,0,0-.59-.23,1.16,1.16,0,0,0-.54.13,1.93,1.93,0,0,0-.48.36V29Z"/><path class="a" d="M62.37,29a.27.27,0,0,1-.28-.2L62,28.31a2.74,2.74,0,0,1-.3.29,1.85,1.85,0,0,1-.34.22A1.74,1.74,0,0,1,61,29a1.89,1.89,0,0,1-.45.05,1.53,1.53,0,0,1-.69-.16,1.55,1.55,0,0,1-.54-.46,2.2,2.2,0,0,1-.35-.74,3.72,3.72,0,0,1-.12-1,3.16,3.16,0,0,1,.14-1,2.32,2.32,0,0,1,.4-.76,1.86,1.86,0,0,1,.63-.51,1.81,1.81,0,0,1,.82-.18,1.62,1.62,0,0,1,.66.12,1.76,1.76,0,0,1,.49.33V22.27H63V29Zm-1.48-.81a1.13,1.13,0,0,0,.59-.14,1.75,1.75,0,0,0,.46-.41V25.52a1.09,1.09,0,0,0-.41-.32A1.21,1.21,0,0,0,61,25.1a1.07,1.07,0,0,0-.46.09.89.89,0,0,0-.35.29A1.4,1.4,0,0,0,60,26a2.75,2.75,0,0,0-.08.7,3.12,3.12,0,0,0,.07.69,1.35,1.35,0,0,0,.19.46.71.71,0,0,0,.3.26A.93.93,0,0,0,60.89,28.14Z"/><path class="a" d="M67.3,26.67V29H66.09V22.45h2.12a3.69,3.69,0,0,1,1.13.15,2.17,2.17,0,0,1,.79.43,1.69,1.69,0,0,1,.46.66,2.44,2.44,0,0,1,0,1.7,1.79,1.79,0,0,1-.47.68,2.2,2.2,0,0,1-.79.44,3.49,3.49,0,0,1-1.11.16Zm0-.95h.91a1.85,1.85,0,0,0,.58-.08,1.08,1.08,0,0,0,.41-.24,1,1,0,0,0,.24-.38,1.45,1.45,0,0,0,.08-.5,1.32,1.32,0,0,0-.08-.47.92.92,0,0,0-.24-.36,1.07,1.07,0,0,0-.41-.23,1.91,1.91,0,0,0-.58-.08H67.3Z"/><path class="a" d="M73.38,24.27a2.25,2.25,0,0,1,.8.14,1.78,1.78,0,0,1,.63.41,1.86,1.86,0,0,1,.41.66,2.49,2.49,0,0,1,.15.89,1.53,1.53,0,0,1,0,.21.32.32,0,0,1,0,.13.17.17,0,0,1-.08.07l-.13,0H72.27a1.59,1.59,0,0,0,.38,1,1.19,1.19,0,0,0,.88.33A1.5,1.5,0,0,0,74,28.1a2.24,2.24,0,0,0,.34-.14l.26-.14a.43.43,0,0,1,.21-.06.24.24,0,0,1,.12,0,.25.25,0,0,1,.09.08l.32.41a1.88,1.88,0,0,1-.41.36,2.34,2.34,0,0,1-.48.23,2.65,2.65,0,0,1-.51.12,3.58,3.58,0,0,1-.5,0,2.47,2.47,0,0,1-.9-.16,2,2,0,0,1-.72-.47,2.22,2.22,0,0,1-.48-.77,3,3,0,0,1-.18-1.07,2.56,2.56,0,0,1,.15-.89,2.13,2.13,0,0,1,.44-.72,2.06,2.06,0,0,1,.7-.49A2.3,2.3,0,0,1,73.38,24.27Zm0,.8a1,1,0,0,0-.76.27,1.36,1.36,0,0,0-.35.78h2.09a1.39,1.39,0,0,0-.06-.41.94.94,0,0,0-.18-.33.86.86,0,0,0-.31-.23A1.05,1.05,0,0,0,73.41,25.07Z"/><path class="a" d="M76.29,29V24.34h.65a.35.35,0,0,1,.24.06.36.36,0,0,1,.09.22l.07.56a2.2,2.2,0,0,1,.58-.67,1.22,1.22,0,0,1,.75-.25,1,1,0,0,1,.57.16l-.14.83a.17.17,0,0,1-.06.12.2.2,0,0,1-.12,0l-.18,0a1.26,1.26,0,0,0-.31,0,.94.94,0,0,0-.59.19,1.48,1.48,0,0,0-.42.56V29Z"/><path class="a" d="M82.7,25.24a.29.29,0,0,1-.09.1.25.25,0,0,1-.13,0,.39.39,0,0,1-.17,0l-.21-.1-.28-.1a1.31,1.31,0,0,0-.37,0,.85.85,0,0,0-.52.14.43.43,0,0,0-.19.36.35.35,0,0,0,.1.25.87.87,0,0,0,.26.18,2.45,2.45,0,0,0,.36.14l.41.13.41.16a1.46,1.46,0,0,1,.36.23,1.09,1.09,0,0,1,.26.34,1.08,1.08,0,0,1,.1.48,1.53,1.53,0,0,1-.12.61,1.35,1.35,0,0,1-.36.49,1.66,1.66,0,0,1-.58.32,2.48,2.48,0,0,1-.79.12,2.53,2.53,0,0,1-.47,0,2.76,2.76,0,0,1-.44-.12,2.43,2.43,0,0,1-.39-.18,1.86,1.86,0,0,1-.31-.23l.26-.42a.37.37,0,0,1,.12-.12.33.33,0,0,1,.17,0,.36.36,0,0,1,.2.06l.21.13.29.13a1.25,1.25,0,0,0,.42.06,1.09,1.09,0,0,0,.34,0,.7.7,0,0,0,.23-.12.45.45,0,0,0,.13-.18.53.53,0,0,0,0-.21.38.38,0,0,0-.1-.27.86.86,0,0,0-.26-.18,2.55,2.55,0,0,0-.36-.14L80.83,27l-.42-.17a1.43,1.43,0,0,1-.36-.25,1.1,1.1,0,0,1-.26-.37,1.27,1.27,0,0,1-.1-.52,1.32,1.32,0,0,1,.11-.54,1.28,1.28,0,0,1,.33-.45,1.64,1.64,0,0,1,.54-.31,2.49,2.49,0,0,1,1.62,0,2,2,0,0,1,.65.41Z"/><path class="a" d="M83.9,30.47V24.34h.68a.33.33,0,0,1,.18,0,.23.23,0,0,1,.1.15l.09.43a2.34,2.34,0,0,1,.64-.52,1.74,1.74,0,0,1,.85-.2,1.5,1.5,0,0,1,.69.16,1.53,1.53,0,0,1,.54.46,2.18,2.18,0,0,1,.35.74,3.7,3.7,0,0,1,.12,1,3.14,3.14,0,0,1-.14,1,2.35,2.35,0,0,1-.4.76,1.84,1.84,0,0,1-.63.51,1.81,1.81,0,0,1-.82.18,1.66,1.66,0,0,1-.66-.12,1.61,1.61,0,0,1-.49-.33v1.89Zm2.16-5.33a1.14,1.14,0,0,0-.59.15,1.72,1.72,0,0,0-.46.41v2.07a1.06,1.06,0,0,0,.41.33,1.24,1.24,0,0,0,.48.09,1.07,1.07,0,0,0,.46-.09.88.88,0,0,0,.35-.29,1.42,1.42,0,0,0,.22-.49,2.8,2.8,0,0,0,.08-.7,3.06,3.06,0,0,0-.07-.69,1.32,1.32,0,0,0-.19-.46.73.73,0,0,0-.29-.26A.92.92,0,0,0,86.06,25.13Z"/><path class="a" d="M90.89,24.27a2.25,2.25,0,0,1,.8.14,1.78,1.78,0,0,1,.63.41,1.86,1.86,0,0,1,.41.66,2.49,2.49,0,0,1,.15.89,1.53,1.53,0,0,1,0,.21.32.32,0,0,1,0,.13.17.17,0,0,1-.08.07l-.13,0H89.78a1.59,1.59,0,0,0,.38,1,1.19,1.19,0,0,0,.88.33,1.5,1.5,0,0,0,.47-.06,2.24,2.24,0,0,0,.34-.14l.26-.14a.43.43,0,0,1,.21-.06.24.24,0,0,1,.12,0,.25.25,0,0,1,.09.08l.32.41a1.88,1.88,0,0,1-.41.36,2.34,2.34,0,0,1-.48.23,2.65,2.65,0,0,1-.51.12,3.58,3.58,0,0,1-.5,0,2.47,2.47,0,0,1-.9-.16,2,2,0,0,1-.72-.47,2.22,2.22,0,0,1-.48-.77,3,3,0,0,1-.18-1.07,2.56,2.56,0,0,1,.15-.89,2.13,2.13,0,0,1,.44-.72,2.06,2.06,0,0,1,.7-.49A2.3,2.3,0,0,1,90.89,24.27Zm0,.8a1,1,0,0,0-.76.27,1.36,1.36,0,0,0-.35.78h2.09a1.39,1.39,0,0,0-.06-.41.94.94,0,0,0-.18-.33.86.86,0,0,0-.31-.23A1.05,1.05,0,0,0,90.92,25.07Z"/><path class="a" d="M97,25.32l-.1.1a.23.23,0,0,1-.14,0,.3.3,0,0,1-.17-.05l-.19-.12a1.37,1.37,0,0,0-.27-.12,1.21,1.21,0,0,0-.38-.05,1.17,1.17,0,0,0-.51.11,1,1,0,0,0-.37.3,1.36,1.36,0,0,0-.22.48,2.58,2.58,0,0,0-.07.64,2.49,2.49,0,0,0,.08.66,1.4,1.4,0,0,0,.23.48,1,1,0,0,0,.36.3,1.09,1.09,0,0,0,.48.1,1.18,1.18,0,0,0,.43-.07,1.37,1.37,0,0,0,.28-.14l.2-.14a.3.3,0,0,1,.19-.07.23.23,0,0,1,.2.1l.32.41a2,2,0,0,1-.4.36,2.15,2.15,0,0,1-.45.23,2.31,2.31,0,0,1-.48.12,3.35,3.35,0,0,1-.49,0,2,2,0,0,1-.81-.16,1.88,1.88,0,0,1-.66-.47,2.26,2.26,0,0,1-.45-.75,2.89,2.89,0,0,1-.16-1,2.93,2.93,0,0,1,.15-.94,2.15,2.15,0,0,1,.43-.75,2,2,0,0,1,.7-.5,2.42,2.42,0,0,1,1-.18,2.29,2.29,0,0,1,.91.17,2.23,2.23,0,0,1,.7.48Z"/><path class="a" d="M99.61,29a1.21,1.21,0,0,1-.92-.34,1.3,1.3,0,0,1-.32-.94V25.17h-.47a.21.21,0,0,1-.22-.23V24.5l.74-.12.23-1.26a.22.22,0,0,1,.08-.14.26.26,0,0,1,.16,0h.58v1.45h1.21v.79H99.47v2.5a.49.49,0,0,0,.11.34.36.36,0,0,0,.29.12.52.52,0,0,0,.17,0l.12-.05.09-.05.08,0,.08,0,.07.07.33.54a1.68,1.68,0,0,1-.56.31A2.09,2.09,0,0,1,99.61,29Z"/><path class="a" d="M102.92,23a.63.63,0,0,1-.06.27.73.73,0,0,1-.38.37.7.7,0,0,1-.28.06.67.67,0,0,1-.27-.06.73.73,0,0,1-.22-.15.76.76,0,0,1-.15-.22.66.66,0,0,1-.06-.27.7.7,0,0,1,.06-.28.74.74,0,0,1,.15-.23.73.73,0,0,1,.22-.15.67.67,0,0,1,.27-.06.7.7,0,0,1,.28.06.74.74,0,0,1,.23.15.74.74,0,0,1,.16.23A.67.67,0,0,1,102.92,23Zm-.17,1.35V29h-1.11V24.34Z"/><path class="a" d="M106.33,29h-1l-1.84-4.62h.92a.35.35,0,0,1,.21.06.3.3,0,0,1,.11.15l.89,2.47c.05.14.09.29.13.42s.07.28.09.41c0-.14.06-.28.09-.41a4,4,0,0,1,.13-.42l.91-2.47a.31.31,0,0,1,.11-.15.32.32,0,0,1,.19-.06h.88Z"/><path class="a" d="M110.57,24.27a2.25,2.25,0,0,1,.8.14,1.78,1.78,0,0,1,.63.41,1.86,1.86,0,0,1,.41.66,2.49,2.49,0,0,1,.15.89,1.53,1.53,0,0,1,0,.21.32.32,0,0,1,0,.13.17.17,0,0,1-.08.07l-.13,0h-2.85a1.59,1.59,0,0,0,.38,1,1.19,1.19,0,0,0,.88.33,1.5,1.5,0,0,0,.47-.06,2.24,2.24,0,0,0,.34-.14l.26-.14a.43.43,0,0,1,.21-.06.24.24,0,0,1,.12,0,.25.25,0,0,1,.09.08l.32.41a1.88,1.88,0,0,1-.41.36,2.34,2.34,0,0,1-.48.23,2.65,2.65,0,0,1-.51.12,3.58,3.58,0,0,1-.5,0,2.47,2.47,0,0,1-.9-.16,2,2,0,0,1-.72-.47,2.22,2.22,0,0,1-.48-.77,3,3,0,0,1-.18-1.07,2.56,2.56,0,0,1,.15-.89,2.13,2.13,0,0,1,.44-.72,2.06,2.06,0,0,1,.7-.49A2.3,2.3,0,0,1,110.57,24.27Zm0,.8a1,1,0,0,0-.76.27,1.36,1.36,0,0,0-.35.78h2.09a1.39,1.39,0,0,0-.06-.41.94.94,0,0,0-.18-.33.86.86,0,0,0-.31-.23A1.05,1.05,0,0,0,110.6,25.07Z"/><path class="a" d="M116.22,25.24a.29.29,0,0,1-.09.1.25.25,0,0,1-.13,0,.39.39,0,0,1-.17,0l-.21-.1-.28-.1a1.31,1.31,0,0,0-.37,0,.85.85,0,0,0-.52.14.43.43,0,0,0-.19.36.35.35,0,0,0,.1.25.87.87,0,0,0,.26.18,2.45,2.45,0,0,0,.36.14l.41.13.41.16a1.46,1.46,0,0,1,.36.23,1.09,1.09,0,0,1,.26.34,1.08,1.08,0,0,1,.1.48,1.53,1.53,0,0,1-.12.61,1.35,1.35,0,0,1-.36.49,1.66,1.66,0,0,1-.58.32,2.48,2.48,0,0,1-.79.12,2.53,2.53,0,0,1-.47,0,2.76,2.76,0,0,1-.44-.12,2.43,2.43,0,0,1-.39-.18,1.86,1.86,0,0,1-.31-.23l.26-.42a.37.37,0,0,1,.12-.12.33.33,0,0,1,.17,0,.36.36,0,0,1,.2.06l.21.13.29.13a1.25,1.25,0,0,0,.42.06,1.09,1.09,0,0,0,.34,0,.7.7,0,0,0,.23-.12.45.45,0,0,0,.13-.18.53.53,0,0,0,0-.21.38.38,0,0,0-.1-.27.86.86,0,0,0-.26-.18,2.55,2.55,0,0,0-.36-.14l-.42-.13-.42-.17a1.43,1.43,0,0,1-.36-.25,1.1,1.1,0,0,1-.26-.37,1.27,1.27,0,0,1-.1-.52,1.32,1.32,0,0,1,.11-.54,1.28,1.28,0,0,1,.33-.45,1.64,1.64,0,0,1,.54-.31,2.49,2.49,0,0,1,1.62,0,2,2,0,0,1,.65.41Z"/><path class="a" d="M118.37,22.45v1.3l-.1.7a.65.65,0,0,1-.11.3.38.38,0,0,1-.53,0,.56.56,0,0,1-.12-.3l-.1-.7v-1.3Zm1.66,0v1.3l-.1.7a.66.66,0,0,1-.11.3.38.38,0,0,1-.53,0,.56.56,0,0,1-.12-.3l-.1-.7v-1.3Z"/></svg>