<?xml version="1.0" encoding="utf-8"?>
<!-- Generator: Adobe Illustrator 21.0.2, SVG Export Plug-In . SVG Version: 6.00 Build 0)  -->
<svg version="1.1" id="Layer_1" xmlns="http://www.w3.org/2000/svg" xmlns:xlink="http://www.w3.org/1999/xlink" x="0px" y="0px"
	 viewBox="0 0 222 60" style="enable-background:new 0 0 222 60;" xml:space="preserve">
<style type="text/css">
	.st0{fill:#31ADC8;}
	.st1{fill:#E8E8E8;}
	.st2{fill:#FFFFFF;}
</style>
<title>education_conference_logo</title>
<path id="_Compound_Path_" class="st0" d="M44,13.5V0H0v60h44V46.5H15.5V36.3h27.9V22.8H15.5v-9.3H44z"/>
<g id="_Group_">
	<path id="_Compound_Path_2" class="st1" d="M70,24.5v-16h9.8v0.7h-9v6.7h8.8v0.7h-8.8v7.2h9v0.7L70,24.5z"/>
	<path id="_Compound_Path_3" class="st1" d="M83.4,24.5v-16h4.7c4.3-0.1,7.8,3.2,7.9,7.5c0,0.2,0,0.4,0,0.5c0.2,4.2-3.1,7.8-7.3,8
		c-0.2,0-0.4,0-0.6,0H83.4z M95.2,16.5c0-4-2.6-7.3-7.1-7.3h-4v14.6h4C92.6,23.7,95.2,20.5,95.2,16.5L95.2,16.5z"/>
	<path id="_Compound_Path_4" class="st1" d="M99.8,18.4V8.5h0.8v9.9c0,3.5,1.8,5.6,5.2,5.6c3.3,0,5.1-2.1,5.1-5.6V8.5h0.8v9.9
		c0,4-2.1,6.3-5.9,6.3C101.8,24.8,99.8,22.3,99.8,18.4z"/>
	<path id="_Compound_Path_5" class="st1" d="M115.3,16.5c-0.2-4.4,3.2-8,7.5-8.2c0.2,0,0.3,0,0.5,0c2.1,0,4.2,0.9,5.6,2.5l-0.6,0.5
		c-1.2-1.5-3.1-2.3-5-2.3c-4,0-7.1,3-7.1,7.5s3.1,7.5,7.1,7.5c1.9,0,3.8-0.8,5-2.3l0.6,0.5c-1.4,1.6-3.4,2.6-5.6,2.5
		c-4.4,0.1-7.9-3.4-8-7.8C115.3,16.8,115.3,16.7,115.3,16.5z"/>
	<path id="_Compound_Path_6" class="st1" d="M143.5,24.5l-1.8-4.3h-8.9l-1.8,4.3h-0.9l6.6-16h0.9l6.6,16H143.5z M137.3,9.4
		l-4.2,10.1h8.3L137.3,9.4z"/>
	<path id="_Compound_Path_7" class="st1" d="M149.5,24.5V9.2h-5.4V8.5h11.6v0.7h-5.4v15.2H149.5z"/>
	<path id="_Compound_Path_8" class="st1" d="M158.7,24.5v-16h0.8v16H158.7z"/>
	<path id="_Compound_Path_9" class="st1" d="M163.1,16.5c0-4.6,2.9-8.3,7.6-8.3s7.6,3.6,7.6,8.3s-3,8.2-7.6,8.2
		S163.1,21.1,163.1,16.5z M177.4,16.5c0-4.4-2.7-7.5-6.8-7.5s-6.8,3.2-6.8,7.5s2.6,7.5,6.8,7.5S177.4,20.8,177.4,16.5z"/>
	<path id="_Compound_Path_10" class="st1" d="M193.5,24.5L182.7,9.7v14.7h-0.8v-16h0.8L193.5,23V8.5h0.8v16L193.5,24.5z"/>
	<path id="_Compound_Path_11" class="st1" d="M68.9,45.2c-0.1-4.4,3.4-8.1,7.8-8.3c0.2,0,0.4,0,0.5,0c2.6-0.1,5.1,1.3,6.4,3.6
		l-2.4,1.2c-0.8-1.4-2.4-2.3-4-2.3c-3,0-5.5,2.4-5.5,5.4c0,0.1,0,0.2,0,0.3c-0.2,3,2.1,5.6,5.2,5.8c0.1,0,0.2,0,0.3,0
		c1.6,0,3.2-0.9,4-2.3l2.4,1.2c-1.3,2.3-3.8,3.6-6.4,3.6c-4.4,0.2-8.2-3.3-8.4-7.7C68.9,45.5,68.9,45.4,68.9,45.2z"/>
	<path id="_Compound_Path_12" class="st1" d="M85.2,45.2c0-4.5,3.7-8.2,8.2-8.2s8.2,3.7,8.2,8.2s-3.7,8.2-8.2,8.2
		S85.2,49.7,85.2,45.2L85.2,45.2z M98.7,45.2c0-3.3-2.1-5.8-5.3-5.8c-3.2,0-5.3,2.5-5.3,5.8s2.1,5.8,5.3,5.8
		C96.6,51,98.7,48.5,98.7,45.2z"/>
	<path id="_Compound_Path_13" class="st1" d="M115.4,53.2L107,41.8v11.4h-2.8v-16h2.9l8.2,11.1v-11h2.8v16L115.4,53.2z"/>
	<path id="_Compound_Path_14" class="st1" d="M121.5,53.2v-16h10.9v2.5h-8.1v4.1h8v2.5h-8v6.9L121.5,53.2z"/>
	<path id="_Compound_Path_15" class="st1" d="M134.9,53.2v-16h10.9v2.5h-8.1v4.1h8v2.5h-8v4.4h8.1v2.5L134.9,53.2z"/>
	<path id="_Compound_Path_16" class="st1" d="M157.8,53.2l-3.5-6h-2.8v6h-2.8v-16h7c2.7-0.2,5,1.8,5.2,4.4c0,0.2,0,0.4,0,0.6
		c0.1,2.3-1.5,4.3-3.8,4.7l3.9,6.3L157.8,53.2z M158.1,42.2c0-1.4-1.1-2.5-2.5-2.5c-0.1,0-0.2,0-0.2,0h-3.8v5.1h3.8
		c1.4,0.1,2.6-0.9,2.7-2.3C158.1,42.4,158.1,42.3,158.1,42.2L158.1,42.2z"/>
	<path id="_Compound_Path_17" class="st1" d="M163.7,53.2v-16h10.9v2.5h-8.1v4.1h8v2.5h-8v4.4h8.1v2.5L163.7,53.2z"/>
	<path id="_Compound_Path_18" class="st1" d="M188.7,53.2l-8.3-11.4v11.4h-2.8v-16h2.9l8.2,11.1v-11h2.8v16L188.7,53.2z"/>
	<path id="_Compound_Path_19" class="st1" d="M194,45.2c-0.1-4.4,3.4-8.1,7.8-8.3c0.2,0,0.4,0,0.5,0c2.6-0.1,5.1,1.3,6.4,3.6
		l-2.4,1.2c-0.8-1.4-2.4-2.3-4-2.3c-3,0-5.5,2.4-5.5,5.4c0,0.1,0,0.2,0,0.3c-0.2,3,2.1,5.6,5.2,5.8c0.1,0,0.2,0,0.3,0
		c1.6,0,3.2-0.9,4-2.3l2.4,1.2c-1.3,2.3-3.8,3.6-6.4,3.6c-4.4,0.2-8.2-3.3-8.4-7.7C194,45.6,194,45.4,194,45.2z"/>
	<path id="_Compound_Path_20" class="st1" d="M211.1,53.2v-16H222v2.5h-8.2v4.1h8v2.5h-8v4.4h8.1v2.5L211.1,53.2z"/>
</g>
<path class="st2" d="M6.5,50.2h-2v4.7h0.8V53h1.2c0.8,0.1,1.5-0.5,1.6-1.3c0.1-0.8-0.5-1.5-1.3-1.6C6.6,50.1,6.6,50.1,6.5,50.2
	L6.5,50.2z M6.4,52.4H5.2v-1.5h1.1c0.4,0,0.8,0.2,0.8,0.7c0,0.4-0.2,0.8-0.7,0.8C6.5,52.4,6.4,52.4,6.4,52.4L6.4,52.4z"/>
<path class="st2" d="M9.9,51.4c-0.5,0-1,0.2-1.4,0.5l0.3,0.5C9.1,52.2,9.5,52,9.8,52c0.5,0,0.8,0.2,0.8,0.6v0.5
	c-0.3-0.3-0.7-0.5-1.1-0.4c-0.6,0-1.1,0.4-1.2,1c0,0,0,0.1,0,0.1c0,0.6,0.5,1.1,1.1,1.1c0,0,0,0,0,0c0.4,0,0.8-0.2,1.1-0.5v0.4h0.7
	v-2.3C11.3,51.7,10.7,51.4,9.9,51.4z M10.6,54.1c-0.2,0.2-0.5,0.4-0.8,0.3c-0.3,0.1-0.7-0.1-0.7-0.5c-0.1-0.3,0.1-0.7,0.5-0.7
	c0.1,0,0.2,0,0.3,0c0.3,0,0.6,0.1,0.8,0.3V54.1z"/>
<path class="st2" d="M13,51.9v-0.5h-0.7v3.4H13v-2.3c0.2-0.3,0.5-0.4,0.8-0.5h0.2v-0.7C13.6,51.4,13.3,51.6,13,51.9z"/>
<rect x="34.5" y="51.5" class="st2" width="0.7" height="3.4"/>
<path class="st2" d="M38.1,51.4c-0.4,0-0.8,0.2-1.1,0.5v-0.5h-0.7v4.7H37v-1.8c0.3,0.3,0.7,0.6,1.1,0.5c0.9,0,1.5-0.7,1.5-1.8
	S38.9,51.4,38.1,51.4z M37.8,54.3c-0.3,0-0.7-0.2-0.9-0.5v-1.3c0.2-0.3,0.5-0.4,0.9-0.4c0.6,0.1,1,0.7,0.9,1.3
	C38.7,53.8,38.3,54.2,37.8,54.3L37.8,54.3z"/>
<circle class="st2" cx="34.9" cy="50.6" r="0.5"/>
<path class="st2" d="M32.5,51.4c-0.5,0-0.9,0.2-1.2,0.5v-1.8h-0.7v4.7h0.7v-2.4c0.2-0.3,0.5-0.4,0.9-0.5c0.4,0,0.7,0.2,0.7,0.7v2.1
	h0.7v-2.4c0-0.6-0.4-1-0.9-1.1C32.6,51.4,32.6,51.4,32.5,51.4z"/>
<path class="st2" d="M27.8,52.4c0-0.2,0.2-0.4,0.6-0.4c0.4,0,0.7,0.1,1,0.4l0.3-0.5c-0.4-0.3-0.8-0.5-1.3-0.5c-0.9,0-1.3,0.5-1.3,1
	c0,1.3,2,0.8,2,1.5c0,0.3-0.2,0.5-0.7,0.5c-0.4,0-0.8-0.2-1.2-0.5l-0.3,0.5c0.4,0.4,0.9,0.5,1.5,0.5c0.9,0,1.4-0.5,1.4-1
	C29.8,52.5,27.8,53,27.8,52.4z"/>
<path class="st2" d="M25.6,51.9v-0.5h-0.7v3.4h0.7v-2.3c0.2-0.3,0.5-0.4,0.9-0.5h0.2v-0.7C26.2,51.4,25.8,51.6,25.6,51.9z"/>
<path class="st2" d="M22.4,51.4c-1,0-1.8,0.8-1.8,1.8s0.8,1.8,1.8,1.8l0,0c0.5,0,1-0.2,1.3-0.5L23.5,54c-0.3,0.2-0.6,0.4-1,0.4
	c-0.6,0-1-0.4-1.1-0.9c0,0,0,0,0,0H24v-0.2c0.1-0.9-0.6-1.7-1.5-1.8C22.5,51.4,22.5,51.4,22.4,51.4z M21.4,52.9c0-0.5,0.4-0.9,1-0.9
	c0,0,0,0,0,0c0.5,0,0.9,0.3,1,0.8c0,0,0,0.1,0,0.1H21.4z"/>
<path class="st2" d="M18.8,51.4c-0.5,0-0.9,0.2-1.2,0.5v-0.5h-0.7v3.4h0.7v-2.4c0.2-0.3,0.5-0.4,0.9-0.5c0.4,0,0.7,0.2,0.7,0.7v2.1
	h0.7v-2.4c0.1-0.5-0.4-1-0.9-1.1C19,51.4,18.9,51.4,18.8,51.4z"/>
<path class="st2" d="M15.9,54.3c-0.2,0-0.3-0.2-0.3-0.4V52h0.7v-0.6h-0.7v-0.9h-0.8v0.9h-0.6V52h0.6v2c-0.1,0.4,0.3,0.8,0.7,0.9
	c0.1,0,0.1,0,0.2,0c0.2,0,0.5-0.1,0.7-0.2l-0.2-0.5C16.1,54.2,16,54.3,15.9,54.3z"/>
<path class="st2" d="M9.4,29.3c0.2-0.3,0.5-0.4,0.9-0.5h0.2v-0.7c-0.4,0-0.8,0.2-1.1,0.6v-0.5H8.7v3.4h0.7V29.3z"/>
<path class="st2" d="M6.5,27h-2v4.7h0.8v-1.8h1.2C7.3,30,8,29.4,8.1,28.6C8.1,27.7,7.5,27,6.7,27C6.6,27,6.6,27,6.5,27z M6.4,29.2
	H5.2v-1.5h1.1c0.4,0,0.8,0.2,0.8,0.7c0,0.4-0.2,0.8-0.7,0.8C6.5,29.2,6.4,29.2,6.4,29.2z"/>
<rect x="11.1" y="28.3" class="st2" width="0.7" height="3.4"/>
<circle class="st2" cx="11.4" cy="27.4" r="0.5"/>
<path class="st2" d="M22.1,30c0,0.9,0.7,1.7,1.6,1.8c0,0,0.1,0,0.1,0c0.5,0,1-0.2,1.4-0.5l-0.3-0.5c-0.3,0.2-0.6,0.4-1,0.4
	c-0.5,0-1-0.4-1-0.9h2.6V30c0.1-0.9-0.6-1.8-1.5-1.9c0,0-0.1,0-0.1,0c-0.9,0-1.7,0.7-1.8,1.7C22.1,29.9,22.1,29.9,22.1,30z
	 M23.8,28.8c0.5,0,0.9,0.3,1,0.8c0,0,0,0.1,0,0.1h-2C22.9,29.2,23.3,28.8,23.8,28.8C23.8,28.8,23.8,28.8,23.8,28.8z"/>
<path class="st2" d="M21.8,31.5L21.6,31c-0.1,0.1-0.2,0.1-0.3,0.1c-0.2,0-0.3-0.2-0.3-0.4v-1.8h0.7v-0.7h-0.7v-0.9h-0.7v0.9h-0.6
	v0.7h0.6v2c-0.1,0.4,0.3,0.8,0.7,0.9c0.1,0,0.1,0,0.2,0C21.3,31.8,21.6,31.7,21.8,31.5z"/>
<path class="st2" d="M18.4,31.3v0.4h0.7v-2.2c0-0.9-0.7-1.2-1.4-1.2c-0.5,0-1,0.2-1.4,0.5l0.3,0.5c0.3-0.3,0.6-0.4,1-0.4
	c0.5,0,0.8,0.2,0.8,0.6v0.5c-0.3-0.3-0.7-0.5-1.1-0.4c-0.6,0-1.1,0.4-1.2,1c0,0,0,0.1,0,0.1c0,0.6,0.5,1.1,1.1,1.1c0,0,0,0,0,0
	C17.7,31.7,18.1,31.6,18.4,31.3z M16.8,30.6c0-0.4,0.3-0.6,0.7-0.6c0,0,0,0,0.1,0c0.3,0,0.6,0.1,0.8,0.3v0.5
	c-0.2,0.2-0.5,0.4-0.8,0.3C17.2,31.3,16.9,31,16.8,30.6C16.8,30.7,16.8,30.6,16.8,30.6z"/>
<polygon class="st2" points="14.5,31.6 15.9,28.3 15.1,28.3 14.1,30.8 13.1,28.3 12.3,28.3 13.7,31.6 "/>
<rect x="18.4" y="5.8" class="st2" width="0.7" height="3.4"/>
<path class="st2" d="M21.6,9.3c0.5,0,1-0.2,1.3-0.6l-0.5-0.4c-0.2,0.3-0.5,0.4-0.8,0.4c-0.6,0-1-0.4-1-1c0,0,0-0.1,0-0.1
	c-0.1-0.5,0.3-1,0.9-1.1c0,0,0.1,0,0.1,0c0.3,0,0.6,0.1,0.8,0.4l0.5-0.4c-0.3-0.4-0.8-0.6-1.3-0.6c-0.9-0.1-1.7,0.7-1.8,1.6
	c0,0.1,0,0.1,0,0.2c0,0.9,0.7,1.7,1.6,1.8C21.5,9.3,21.6,9.3,21.6,9.3z"/>
<circle class="st2" cx="18.8" cy="4.9" r="0.5"/>
<rect x="16.7" y="4.5" class="st2" width="0.7" height="4.7"/>
<path class="st2" d="M9.8,9.3c0.5,0,0.9-0.2,1.2-0.5v0.4h0.7V5.8H11v2.4c-0.2,0.3-0.5,0.4-0.9,0.4c-0.4,0-0.7-0.2-0.7-0.7V5.8H8.7
	v2.4c0,0.6,0.4,1,0.9,1.1C9.6,9.3,9.7,9.3,9.8,9.3z"/>
<path class="st2" d="M6.5,4.5h-2v4.7h0.8V7.5h1.2C7.3,7.5,8,6.9,8.1,6.1c0.1-0.8-0.5-1.5-1.3-1.6C6.6,4.5,6.6,4.5,6.5,4.5z M6.4,6.7
	H5.2V5.2h1.1c0.4,0,0.8,0.2,0.8,0.7S6.9,6.7,6.5,6.7C6.5,6.7,6.4,6.7,6.4,6.7z"/>
<path class="st2" d="M13.4,8.8c0.3,0.3,0.7,0.5,1.1,0.6c0.9,0,1.5-0.7,1.5-1.8s-0.6-1.8-1.5-1.8c-0.4,0-0.8,0.2-1.1,0.6V4.5h-0.7
	v4.7h0.7V8.8z M13.4,6.9c0.2-0.3,0.5-0.5,0.9-0.5c0.6,0,1,0.4,1,1c0,0,0,0.1,0,0.1c0.1,0.5-0.3,1-0.9,1.1c0,0-0.1,0-0.1,0
	c-0.3,0-0.7-0.2-0.9-0.4V6.9z"/>
</svg>
