<svg id="Layer_1" data-name="Layer 1" xmlns="http://www.w3.org/2000/svg" viewBox="0 0 222.01 59.99"><defs><style>.cls-1{fill:#31adc8;}.cls-2{fill:#444344;}.cls-3{fill:#fff;}</style></defs><title>education_conference_logo</title><path id="_Compound_Path_" data-name="&lt;Compound Path&gt;" class="cls-1" d="M58.14,20.45V7h-44v60h44V53.46H29.63V43.29H57.51V29.8H29.63V20.45Z" transform="translate(-14.16 -6.96)"/><g id="_Group_" data-name="&lt;Group&gt;"><path id="_Compound_Path_2" data-name="&lt;Compound Path&gt;" class="cls-2" d="M84.2,31.41v-16H94v.72H85v6.68h8.83v.72H85V30.7h9v.72Z" transform="translate(-14.16 -6.96)"/><path id="_Compound_Path_3" data-name="&lt;Compound Path&gt;" class="cls-2" d="M97.55,31.41v-16h4.74a7.71,7.71,0,0,1,7.94,8,7.67,7.67,0,0,1-7.94,8Zm11.84-8c0-4-2.58-7.27-7.11-7.27h-4V30.7h4C106.81,30.7,109.39,27.49,109.39,23.45Z" transform="translate(-14.16 -6.96)"/><path id="_Compound_Path_4" data-name="&lt;Compound Path&gt;" class="cls-2" d="M113.91,25.36V15.46h.77v9.91c0,3.54,1.82,5.62,5.17,5.62S125,28.9,125,25.36V15.46h.77v9.91c0,3.95-2.06,6.34-5.93,6.34S113.91,29.28,113.91,25.36Z" transform="translate(-14.16 -6.96)"/><path id="_Compound_Path_5" data-name="&lt;Compound Path&gt;" class="cls-2" d="M129.43,23.45a7.89,7.89,0,0,1,8-8.25A7.11,7.11,0,0,1,143,17.7l-.6.53a6.37,6.37,0,0,0-5-2.32c-4,0-7.13,3-7.13,7.54S133.41,31,137.4,31a6.37,6.37,0,0,0,5-2.32l.62.5a7.1,7.1,0,0,1-5.58,2.54A7.89,7.89,0,0,1,129.43,23.45Z" transform="translate(-14.16 -6.96)"/><path id="_Compound_Path_6" data-name="&lt;Compound Path&gt;" class="cls-2" d="M157.66,31.41l-1.77-4.28H147l-1.77,4.28h-.88l6.65-16h.91l6.65,16Zm-6.22-15.07-4.16,10.07h8.33Z" transform="translate(-14.16 -6.96)"/><path id="_Compound_Path_7" data-name="&lt;Compound Path&gt;" class="cls-2" d="M163.66,31.41V16.17h-5.38v-.72h11.56v.72h-5.41V31.41Z" transform="translate(-14.16 -6.96)"/><path id="_Compound_Path_8" data-name="&lt;Compound Path&gt;" class="cls-2" d="M172.85,31.41v-16h.77v16Z" transform="translate(-14.16 -6.96)"/><path id="_Compound_Path_9" data-name="&lt;Compound Path&gt;" class="cls-2" d="M177.27,23.45c0-4.62,2.94-8.25,7.58-8.25s7.58,3.64,7.58,8.25-3,8.25-7.58,8.25S177.27,28.06,177.27,23.45Zm14.33,0c0-4.38-2.66-7.54-6.75-7.54s-6.75,3.16-6.75,7.54S180.72,31,184.86,31,191.6,27.78,191.6,23.45Z" transform="translate(-14.16 -6.96)"/><path id="_Compound_Path_10" data-name="&lt;Compound Path&gt;" class="cls-2" d="M207.63,31.41,196.86,16.7V31.41h-.77v-16h.77L207.63,30V15.46h.77v16Z" transform="translate(-14.16 -6.96)"/><path id="_Compound_Path_11" data-name="&lt;Compound Path&gt;" class="cls-2" d="M83.08,52.15a8.05,8.05,0,0,1,8.37-8.25,7.21,7.21,0,0,1,6.41,3.59L95.47,48.7a4.74,4.74,0,0,0-4-2.32,5.47,5.47,0,0,0-5.5,5.77,5.47,5.47,0,0,0,5.5,5.77,4.69,4.69,0,0,0,4-2.32l2.39,1.22a7.24,7.24,0,0,1-6.41,3.59A8.05,8.05,0,0,1,83.08,52.15Z" transform="translate(-14.16 -6.96)"/><path id="_Compound_Path_12" data-name="&lt;Compound Path&gt;" class="cls-2" d="M99.39,52.15a8.16,8.16,0,1,1,16.32,0,8.16,8.16,0,1,1-16.32,0Zm13.45,0c0-3.3-2.08-5.77-5.29-5.77s-5.29,2.46-5.29,5.77,2.06,5.77,5.29,5.77S112.84,55.43,112.84,52.15Z" transform="translate(-14.16 -6.96)"/><path id="_Compound_Path_13" data-name="&lt;Compound Path&gt;" class="cls-2" d="M129.53,60.12l-8.33-11.39V60.12h-2.8v-16h2.87l8.16,11.08V44.16h2.8v16Z" transform="translate(-14.16 -6.96)"/><path id="_Compound_Path_14" data-name="&lt;Compound Path&gt;" class="cls-2" d="M135.63,60.12v-16h10.93v2.46h-8.13v4.14h8v2.46h-8v6.89Z" transform="translate(-14.16 -6.96)"/><path id="_Compound_Path_15" data-name="&lt;Compound Path&gt;" class="cls-2" d="M149.07,60.12v-16H160v2.46h-8.13v4.14h8v2.46h-8v4.43H160v2.46Z" transform="translate(-14.16 -6.96)"/><path id="_Compound_Path_16" data-name="&lt;Compound Path&gt;" class="cls-2" d="M172,60.12l-3.54-6h-2.78v6h-2.8v-16h7a4.84,4.84,0,0,1,5.22,5,4.47,4.47,0,0,1-3.78,4.69l3.9,6.27Zm.24-11a2.52,2.52,0,0,0-2.73-2.54h-3.83V51.7h3.83A2.52,2.52,0,0,0,172.23,49.16Z" transform="translate(-14.16 -6.96)"/><path id="_Compound_Path_17" data-name="&lt;Compound Path&gt;" class="cls-2" d="M177.9,60.12v-16h10.93v2.46h-8.13v4.14h8v2.46h-8v4.43h8.13v2.46Z" transform="translate(-14.16 -6.96)"/><path id="_Compound_Path_18" data-name="&lt;Compound Path&gt;" class="cls-2" d="M202.82,60.12,194.5,48.73V60.12h-2.8v-16h2.87l8.16,11.08V44.16h2.8v16Z" transform="translate(-14.16 -6.96)"/><path id="_Compound_Path_19" data-name="&lt;Compound Path&gt;" class="cls-2" d="M208.2,52.15a8.05,8.05,0,0,1,8.37-8.25A7.21,7.21,0,0,1,223,47.49l-2.39,1.22a4.74,4.74,0,0,0-4-2.32,5.47,5.47,0,0,0-5.5,5.77,5.47,5.47,0,0,0,5.5,5.77,4.69,4.69,0,0,0,4-2.32L223,56.82a7.24,7.24,0,0,1-6.41,3.59A8.05,8.05,0,0,1,208.2,52.15Z" transform="translate(-14.16 -6.96)"/><path id="_Compound_Path_20" data-name="&lt;Compound Path&gt;" class="cls-2" d="M225.23,60.12v-16h10.93v2.46H228v4.14h8v2.46h-8v4.43h8.13v2.46Z" transform="translate(-14.16 -6.96)"/></g><path class="cls-3" d="M20.63,57.11H18.58v4.68h.82V60h1.23a1.47,1.47,0,1,0,0-2.93Zm-.11,2.21H19.4V57.84h1.12a.75.75,0,1,1,0,1.49Z" transform="translate(-14.16 -6.96)"/><path class="cls-3" d="M24.07,58.32a2,2,0,0,0-1.42.55l.3.51A1.39,1.39,0,0,1,24,59c.47,0,.79.24.79.63v.5a1.4,1.4,0,0,0-1.09-.43,1.09,1.09,0,0,0-1.18,1.1,1.13,1.13,0,0,0,1.18,1.12,1.43,1.43,0,0,0,1.09-.45v.36h.74V59.55C25.48,58.64,24.83,58.32,24.07,58.32Zm.67,2.7a1,1,0,0,1-.81.35.62.62,0,1,1,0-1.21,1,1,0,0,1,.81.35Z" transform="translate(-14.16 -6.96)"/><path class="cls-3" d="M27.17,58.9v-.5h-.74v3.39h.74V59.48A1.17,1.17,0,0,1,28,59l.23,0v-.73A1.45,1.45,0,0,0,27.17,58.9Z" transform="translate(-14.16 -6.96)"/><rect class="cls-3" x="34.55" y="51.45" width="0.74" height="3.39"/><path class="cls-3" d="M52.22,58.32a1.35,1.35,0,0,0-1.09.55V58.4H50.4v4.68h.74V61.32a1.33,1.33,0,0,0,1.09.55c.88,0,1.5-.67,1.5-1.78S53.1,58.32,52.22,58.32ZM52,61.22a1.12,1.12,0,0,1-.87-.46V59.43A1.1,1.1,0,0,1,52,59a1.14,1.14,0,0,1,0,2.25Z" transform="translate(-14.16 -6.96)"/><circle class="cls-3" cx="34.91" cy="50.58" r="0.46"/><path class="cls-3" d="M46.67,58.32a1.62,1.62,0,0,0-1.2.55V57.11h-.74v4.68h.74V59.43a1.14,1.14,0,0,1,.87-.46c.41,0,.69.16.69.69v2.13h.74v-2.4A1,1,0,0,0,46.67,58.32Z" transform="translate(-14.16 -6.96)"/><path class="cls-3" d="M41.94,59.32c0-.24.25-.41.63-.41a1.37,1.37,0,0,1,1,.41l.31-.52a1.94,1.94,0,0,0-1.32-.48c-.86,0-1.33.48-1.33,1,0,1.3,2,.82,2,1.49,0,.27-.22.46-.67.46a1.75,1.75,0,0,1-1.15-.48l-.34.53a2.06,2.06,0,0,0,1.45.53c.91,0,1.41-.46,1.41-1.05C44,59.48,41.94,59.93,41.94,59.32Z" transform="translate(-14.16 -6.96)"/><path class="cls-3" d="M39.72,58.9v-.5H39v3.39h.74V59.48a1.17,1.17,0,0,1,.87-.45l.23,0v-.73A1.45,1.45,0,0,0,39.72,58.9Z" transform="translate(-14.16 -6.96)"/><path class="cls-3" d="M36.59,58.32a1.78,1.78,0,0,0,.06,3.56A2,2,0,0,0,38,61.39l-.34-.48a1.43,1.43,0,0,1-1,.37,1,1,0,0,1-1.08-.93h2.62v-.18A1.68,1.68,0,0,0,36.59,58.32Zm-1,1.5a.93.93,0,0,1,1-.9.91.91,0,0,1,1,.9Z" transform="translate(-14.16 -6.96)"/><path class="cls-3" d="M33,58.32a1.6,1.6,0,0,0-1.19.55V58.4h-.74v3.39h.74V59.43a1.12,1.12,0,0,1,.87-.46c.41,0,.68.18.68.7v2.12h.74V59.41A1,1,0,0,0,33,58.32Z" transform="translate(-14.16 -6.96)"/><path class="cls-3" d="M30.08,61.22c-.21,0-.32-.17-.32-.4V59h.69V58.4h-.69v-.93H29v.93h-.56V59H29v2a.78.78,0,0,0,.87.87,1,1,0,0,0,.69-.22l-.18-.55A.47.47,0,0,1,30.08,61.22Z" transform="translate(-14.16 -6.96)"/><path class="cls-3" d="M23.56,36.3a1.17,1.17,0,0,1,.87-.45l.23,0v-.73a1.45,1.45,0,0,0-1.1.58v-.5h-.74v3.39h.74Z" transform="translate(-14.16 -6.96)"/><path class="cls-3" d="M20.63,33.93H18.58v4.68h.82V36.86h1.23a1.47,1.47,0,1,0,0-2.93Zm-.11,2.21H19.4V34.65h1.12a.75.75,0,1,1,0,1.49Z" transform="translate(-14.16 -6.96)"/><rect class="cls-3" x="11.09" y="28.26" width="0.74" height="3.39"/><circle class="cls-3" cx="11.45" cy="27.39" r="0.46"/><path class="cls-3" d="M36.25,36.91A1.7,1.7,0,0,0,38,38.69a2,2,0,0,0,1.37-.49l-.34-.48a1.43,1.43,0,0,1-1,.37A1,1,0,0,1,37,37.15h2.62V37A1.68,1.68,0,0,0,38,35.13,1.71,1.71,0,0,0,36.25,36.91ZM38,35.74a.91.91,0,0,1,1,.9H37A.93.93,0,0,1,38,35.74Z" transform="translate(-14.16 -6.96)"/><path class="cls-3" d="M35.94,38.47l-.18-.55a.47.47,0,0,1-.33.12c-.21,0-.32-.17-.32-.4V35.86h.69v-.65h-.69v-.93h-.74v.93h-.56v.65h.56v2a.78.78,0,0,0,.87.87A1,1,0,0,0,35.94,38.47Z" transform="translate(-14.16 -6.96)"/><path class="cls-3" d="M32.54,38.24v.36h.74V36.36c0-.91-.66-1.23-1.41-1.23a2,2,0,0,0-1.42.55l.3.51a1.39,1.39,0,0,1,1-.43c.47,0,.79.24.79.63v.51a1.4,1.4,0,0,0-1.09-.43,1.09,1.09,0,0,0-1.18,1.1,1.13,1.13,0,0,0,1.18,1.12A1.43,1.43,0,0,0,32.54,38.24ZM31,37.58a.64.64,0,0,1,.72-.61,1,1,0,0,1,.81.35v.51a1,1,0,0,1-.81.35A.64.64,0,0,1,31,37.58Z" transform="translate(-14.16 -6.96)"/><polygon class="cls-3" points="14.46 31.65 15.85 28.26 15.05 28.26 14.06 30.8 13.07 28.26 12.29 28.26 13.67 31.65 14.46 31.65"/><rect class="cls-3" x="18.4" y="5.82" width="0.74" height="3.39"/><path class="cls-3" d="M35.79,16.25a1.52,1.52,0,0,0,1.3-.6l-.48-.45a.92.92,0,0,1-.78.4,1,1,0,0,1-1-1.13,1,1,0,0,1,1-1.12.9.9,0,0,1,.78.4l.48-.45a1.52,1.52,0,0,0-1.3-.6A1.7,1.7,0,0,0,34,14.47,1.7,1.7,0,0,0,35.79,16.25Z" transform="translate(-14.16 -6.96)"/><circle class="cls-3" cx="18.76" cy="4.95" r="0.46"/><rect class="cls-3" x="16.71" y="4.53" width="0.74" height="4.68"/><path class="cls-3" d="M23.91,16.25a1.62,1.62,0,0,0,1.2-.53v.45h.74V12.78h-.74v2.38a1.13,1.13,0,0,1-.87.44c-.41,0-.68-.16-.68-.69V12.78h-.74v2.4A1,1,0,0,0,23.91,16.25Z" transform="translate(-14.16 -6.96)"/><path class="cls-3" d="M20.63,11.49H18.58v4.68h.82V14.42h1.23a1.47,1.47,0,1,0,0-2.93Zm-.11,2.21H19.4V12.21h1.12a.75.75,0,1,1,0,1.49Z" transform="translate(-14.16 -6.96)"/><path class="cls-3" d="M27.53,15.71a1.36,1.36,0,0,0,1.09.55c.86,0,1.5-.66,1.5-1.77s-.63-1.78-1.5-1.78a1.34,1.34,0,0,0-1.09.55V11.49h-.74v4.68h.74Zm0-1.89a1.11,1.11,0,0,1,.87-.46,1,1,0,0,1,1,1.13,1,1,0,0,1-1,1.12,1.09,1.09,0,0,1-.87-.45Z" transform="translate(-14.16 -6.96)"/></svg>