<?xml version="1.0" encoding="utf-8"?>
<!-- Generator: Adobe Illustrator 21.0.2, SVG Export Plug-In . SVG Version: 6.00 Build 0)  -->
<svg version="1.1" id="Layer_1" xmlns="http://www.w3.org/2000/svg" xmlns:xlink="http://www.w3.org/1999/xlink" x="0px" y="0px"
	 viewBox="0 0 950 300" style="enable-background:new 0 0 950 300;" xml:space="preserve">
<style type="text/css">
	.st0{fill:#0077C0;}
	.st1{fill:#007A40;}
	.st2{fill:#009C4E;}
	.st3{fill:#39B54A;}
	.st4{fill:#0083BF;}
	.st5{fill:#0098CD;}
	.st6{fill:#62B3E4;}
</style>
<title>Artboard 1</title>
<g>
	<path class="st0" d="M436.1,123.7c0,1.9-0.5,2.9-1.3,2.9s-1.1-1-1.3-2.5c-1.8-20.4-16.7-27-27.8-27c-12.9,0-26.7,3.8-26.7,20.3
		c0,26.3,65.6,7.1,65.6,56c0,25.5-21.2,37.2-43.6,37.2c-6.8,0-22.8-1-34-8.8c-2.1-1.5-2.1,2.3-3.5,2.3c-0.7,0-1.7-0.8-1.8-6.9
		l-2.2-28c-0.1-1.3,0.4-2.3,1.3-2.3c0.4,0,1.3,0.6,1.4,2.5c2.7,27.2,25.1,33.7,39,33.7c13.9,0,29-5.8,29-23
		c0-26.3-65.8-6.5-65.8-55.4c0-26.5,21-35.3,40.6-35.3c9.3,0.1,18.5,2.5,26.7,6.9c2.1,1.3,2.5-1.9,3.8-1.9c0.7,0,1.3,1,1.1,7.7
		L436.1,123.7z"/>
	<path class="st0" d="M522.1,168.6h-47.7l-4.6,10.7c-1.7,3.8-5.7,13-5.7,18c0,3.8,1.3,7.5,8.1,7.5c1.5,0,2.2,0.8,2.2,1.7
		s-0.7,1.7-2.1,1.7c-5.7,0-11.4-0.4-16.9-0.4s-11.5,0.4-17.2,0.4c-1.4,0-2.2-0.8-2.2-1.7s0.8-1.7,2.2-1.7
		c9.5-0.2,15.8-11.9,23.3-29.1l32.5-73.4c-2-4.4-6.4-7.3-11.2-7.5c-1.5,0-2.4-0.8-2.4-1.7c0-1,0.8-1.7,2.2-1.7H498
		c7.9,0,11.7,3.8,15.6,12.7l32.9,76.5c4.2,9.6,11.2,24,18.9,24c1.5,0,2.2,0.8,2.2,1.9c0,0.8-0.7,1.5-2.1,1.5
		c-6.7,0-12.9-0.4-19.4-0.4c-6.8,0-13.5,0.4-20.3,0.4c-1.4,0-1.9-0.6-1.9-1.7c0.1-1,0.9-1.7,1.9-1.7c0,0,0,0,0,0
		c4.1,0,6.9-1.9,6.9-6.7c0-3.6-1.4-8.2-4.6-15.3L522.1,168.6z M498.5,113L478,160h40.3L498.5,113z"/>
	<path class="st0" d="M610.4,208.1c-5,0-10.3-0.4-15.8-0.4c-7.9,0-13.8,0.4-19.2,0.4c-2.1,0-2.9-0.6-2.9-1.7s0.8-1.7,2.9-1.7
		c3.1,0,8.5-1.9,10.3-6.7c0.9-3.2,1.3-6.5,1.1-9.8v-75.5c0-5.9-0.3-9-1.1-11.3c-1.8-4.8-7.2-6.7-10.3-6.7c-2.1,0-2.9-0.4-2.9-1.7
		c0-1.3,0.8-1.7,2.9-1.7c5.6,0,11.2,0.4,19.4,0.4c5.6,0,11-0.4,16.9-0.4h20.3c11.8,0,40.3,0,40.3,28.6c0,11.5-5.6,18.6-11.9,23.6
		c10.1,4,19.4,13.8,19.4,30.3c0,29.5-25.1,34-41.9,34L610.4,208.1z M634.7,141.6c8.5,0,17.8-4.6,17.8-20.9
		c0-16.7-9.5-20.7-20.6-20.7h-24.7c-1.4,0-3.1,1-3.1,4.2v34.9c0,1.7,0.3,2.3,1.4,2.5L634.7,141.6z M638.1,199.3
		c16.5,0,22-13.4,22-25.1c0-11.7-6.1-24-19.2-24h-35.6c-0.8,0.2-1.1,0.8-1.1,2.1v28.4c0,16.5,0.6,18.4,15,18.6H638.1z"/>
	<path class="st0" d="M760.7,168.6h-47.7l-4.6,10.7c-1.7,3.8-5.7,13-5.7,18c0,3.8,1.3,7.5,8.1,7.5c1.5,0,2.2,0.8,2.2,1.7
		s-0.7,1.7-2.1,1.7c-5.7,0-11.4-0.4-16.9-0.4c-5.6,0-11.5,0.4-17.2,0.4c-1.4,0-2.2-0.8-2.2-1.7s0.8-1.7,2.2-1.7
		c9.5-0.2,15.8-11.9,23.3-29.1l32.5-73.4c-2-4.4-6.4-7.3-11.2-7.5c-1.5,0-2.4-0.8-2.4-1.7c0-1,0.8-1.7,2.2-1.7h15.4
		c7.9,0,11.7,3.8,15.6,12.7l32.9,76.5c4.2,9.6,11.2,24,18.9,24c1.5,0,2.2,0.8,2.2,1.9c0,0.8-0.7,1.5-2.1,1.5
		c-6.7,0-12.9-0.4-19.4-0.4c-6.8,0-13.5,0.4-20.3,0.4c-1.4,0-1.9-0.6-1.9-1.7c0.1-1,0.9-1.7,1.9-1.7c0,0,0,0,0,0
		c4.1,0,6.9-1.9,6.9-6.7c0-3.6-1.4-8.2-4.6-15.3L760.7,168.6z M737.1,113l-20.4,47H757L737.1,113z"/>
	<path class="st0" d="M825.6,111.3c0.2-3.2-0.2-6.5-1.1-9.6c-1.8-4.8-7.2-6.7-10.3-6.9c-1.7,0-3.1-0.4-3.1-1.7c0-1,1.1-1.7,2.7-1.7
		c5.7,0,11.8,0.4,20.3,0.4s14.6-0.5,20.3-0.5c1.7,0,2.7,0.6,2.7,1.7c0,1.3-1.4,1.7-3.1,1.7c-3.1,0.2-8.5,2.1-10.3,6.9
		c-0.9,3.1-1.3,6.4-1.1,9.6v28c0,1.3,0.3,2.1,1.3,2.1h62.2c0.8,0,1.1-0.4,1.1-1.5v-28.6c0.2-3.2-0.2-6.5-1.1-9.6
		c-1.8-4.8-7.1-6.7-10.1-6.9c-1.8,0-3.1-0.4-3.1-1.7c0-1,1.1-1.7,2.7-1.7c5.7,0,11.7,0.4,20.1,0.4c8.5,0,14.7-0.4,20.4-0.4
		c1.7,0,2.7,0.6,2.7,1.7c0,1.3-1.3,1.7-3.1,1.7c-3.1,0.2-8.3,2.1-10.1,6.9c-0.9,3.1-1.3,6.4-1.1,9.6v75.5c0,5.9,0.3,8.8,1.1,11.1
		c1.8,4.1,5.7,6.8,10.1,6.9c1.8,0,3.1,0.4,3.1,1.7c0,1-1.1,1.7-2.7,1.7c-5.7,0-11.7-0.4-20.1-0.4c-8.5,0-14.5,0.4-20.3,0.4
		c-1.7,0-2.7-0.6-2.7-1.7c0-1.3,1.3-1.7,3.1-1.7c3.1,0,8.3-2.1,10.1-6.9c0.8-2.3,1.1-5.2,1.1-11.1v-33c0-1.5-0.3-2.1-1.1-2.1h-62
		c-1.1,0-1.5,0.4-1.5,2.1v33c0,5.9,0.4,8.8,1.1,11.1c1.8,4.8,7.2,6.9,10.3,6.9c1.7,0,3.1,0.4,3.1,1.7c0,1-1.1,1.7-2.7,1.7
		c-5.7,0-11.8-0.4-20.3-0.4c-8.5,0-14.5,0.4-20.3,0.4c-1.7,0-2.7-0.6-2.7-1.7c0-1.3,1.4-1.7,3.1-1.7c3.1,0,8.5-2.1,10.3-6.9
		c0.7-2.3,1.1-5.2,1.1-11.1L825.6,111.3z"/>
	<polygon class="st1" points="261.3,53.4 230.5,72.1 232.4,116.8 263.2,97.7 	"/>
	<polygon class="st1" points="293.4,130.6 304.2,124 268.2,104.2 257.3,110.9 	"/>
	<polygon class="st2" points="293.4,130.6 257.3,110.9 246.9,117.2 291.6,141.7 302,135.3 	"/>
	<polygon class="st2" points="252.9,104.6 250.7,52.7 240.7,58.8 242.9,110.8 	"/>
	<polygon class="st3" points="246.9,117.2 205.2,142.8 255.7,170.3 297.2,144.7 291.6,141.7 	"/>
	<polygon class="st3" points="242.9,110.8 240.7,58.8 240.4,51.9 199.8,77.7 201.2,136.3 	"/>
	<polygon class="st1" points="251.5,236.5 262.3,243.2 263.7,202.1 252.9,195.4 	"/>
	<polygon class="st1" points="267.3,195.3 304.2,174.8 293.5,168.1 256.5,188.7 	"/>
	<polygon class="st2" points="242.6,189 240.8,239.9 251.2,246.3 251.5,236.5 252.9,195.4 	"/>
	<polygon class="st2" points="246.5,182.4 256.5,188.7 293.5,168.1 301.9,163.4 291.9,157.2 	"/>
	<polygon class="st3" points="242.6,189 201,163.3 199.1,220.7 240.6,246.2 240.8,239.9 	"/>
	<polygon class="st3" points="246.5,182.4 291.9,157.2 298,153.7 256.7,129.1 205,156.7 	"/>
	<polygon class="st1" points="45.9,104.2 9.9,124 20.7,130.6 56.7,110.9 	"/>
	<polygon class="st1" points="62.9,62.3 52.1,55.8 50.4,98 61.1,104.6 	"/>
	<polygon class="st2" points="67.1,117.2 56.7,110.9 20.7,130.6 12.1,135.3 22.5,141.7 	"/>
	<polygon class="st2" points="71.2,110.8 73.4,58.8 63.3,52.7 62.9,62.3 61.1,104.6 	"/>
	<polygon class="st3" points="22.5,141.7 16.9,144.7 58.4,170.3 108.8,142.8 67.1,117.2 	"/>
	<polygon class="st3" points="114.3,77.7 73.7,51.9 73.4,58.8 71.2,110.8 112.8,136.3 	"/>
	<polygon class="st1" points="50.4,202.1 51.8,243.2 62.6,236.5 61.2,195.4 	"/>
	<polygon class="st1" points="20.6,168.1 9.9,174.8 46.8,195.3 57.5,188.7 	"/>
	<polygon class="st2" points="71.5,189 61.2,195.4 62.6,236.5 62.9,246.3 73.3,239.9 	"/>
	<polygon class="st2" points="67.6,182.4 22.2,157.2 12.2,163.4 20.6,168.1 57.5,188.7 	"/>
	<polygon class="st3" points="115,220.7 113.1,163.3 71.5,189 73.3,239.9 73.5,246.2 	"/>
	<polygon class="st3" points="67.6,182.4 109.1,156.7 57.4,129.1 16.1,153.7 22.2,157.2 	"/>
	<polygon class="st4" points="160.4,269.2 201.4,292.7 201.5,278.1 160.4,254.5 	"/>
	<polygon class="st4" points="109.1,277.7 109.1,292.2 151.6,268.6 151.6,254 	"/>
	<polygon class="st5" points="160.4,254.5 201.5,278.1 211.2,283.6 211.2,269.6 160.4,240.5 	"/>
	<polygon class="st5" points="151.6,240.4 99.3,269.5 99.3,283.1 109.1,277.7 151.6,254 	"/>
	<polygon class="st6" points="160.4,184.2 160.4,240.5 211.2,269.6 217.6,273.3 217.7,217.2 	"/>
	<polygon class="st6" points="151.6,184.2 93.2,218 92.3,273.4 99.3,269.5 151.6,240.4 	"/>
	<polygon class="st4" points="154.1,31.6 154.1,30.8 113.1,7.3 113,21.9 154.1,45.5 	"/>
	<polygon class="st4" points="162.9,46 205.4,22.3 205.4,7.8 162.9,31.4 162.9,32.4 	"/>
	<polygon class="st5" points="154.1,52.6 154.1,45.5 113,21.9 103.3,16.4 103.3,30.4 154.1,59.5 	"/>
	<polygon class="st5" points="162.9,52.8 162.9,59.6 215.2,30.5 215.2,16.9 205.4,22.3 162.9,46 	"/>
	<polygon class="st6" points="103.3,30.4 96.9,26.7 96.8,82.8 154.1,115.8 154.1,59.5 	"/>
	<polygon class="st6" points="215.2,30.5 162.9,59.6 162.9,115.8 221.2,82 222.2,26.6 	"/>
</g>
</svg>
